<?xml version="1.0" standalone="no"?>
<!DOCTYPE svg PUBLIC "-//W3C//DTD SVG 20010904//EN"
 "http://www.w3.org/TR/2001/REC-SVG-20010904/DTD/svg10.dtd">
<svg version="1.0" xmlns="http://www.w3.org/2000/svg"
 width="256.000000pt" height="256.000000pt" viewBox="0 0 256.000000 256.000000"
 preserveAspectRatio="xMidYMid meet">
<metadata>
Created by potrace 1.14, written by Peter Selinger 2001-2017
</metadata>
<g transform="translate(0.000000,256.000000) scale(0.100000,-0.100000)"
fill="#000000" stroke="none">
<path d="M902 2288 c-16 -16 -16 -210 0 -226 7 -7 24 -12 38 -12 44 0 50 16
50 125 0 109 -6 125 -50 125 -14 0 -31 -5 -38 -12z"/>
<path d="M332 2054 c-42 -29 -35 -53 40 -131 75 -77 101 -88 131 -55 29 32 20
57 -45 124 -68 70 -96 83 -126 62z"/>
<path d="M1520 2062 c-18 -5 -128 -110 -141 -134 -16 -30 16 -78 53 -78 18 0
158 133 158 151 0 34 -42 71 -70 61z"/>
<path d="M773 1984 c-91 -26 -135 -48 -208 -104 -98 -76 -177 -199 -210 -328
-29 -115 -16 -284 31 -376 7 -16 14 -30 14 -32 0 -1 -26 -10 -57 -19 -158 -46
-259 -150 -293 -301 -27 -117 -3 -304 50 -389 32 -51 110 -119 175 -151 l60
-29 940 0 940 0 66 32 c165 81 262 254 244 436 -14 147 -91 282 -200 352 -54
34 -187 79 -200 67 -3 -3 -4 19 -2 50 13 165 -61 295 -212 371 -111 56 -209
67 -322 36 -38 -10 -71 -19 -73 -19 -2 0 -12 21 -22 48 -26 69 -99 175 -155
226 -153 137 -370 187 -566 130z m191 -70 c10 -10 16 -11 16 -3 0 8 5 8 17 -2
11 -9 14 -10 9 -2 -5 10 1 11 26 6 18 -3 36 -10 39 -15 3 -5 10 -8 15 -6 17 5
74 -21 74 -34 0 -9 3 -9 10 2 5 8 10 10 10 4 0 -7 9 -14 21 -17 12 -3 18 -10
14 -16 -4 -7 0 -8 11 -4 12 4 15 3 10 -5 -4 -7 -1 -12 7 -12 17 0 59 -35 51
-43 -3 -3 3 -8 13 -11 25 -9 65 -68 97 -143 27 -65 33 -99 16 -88 -6 4 -8 10
-5 15 3 5 -4 11 -15 15 -11 4 -18 11 -14 16 3 5 10 6 16 3 6 -4 8 -2 5 4 -4 5
-16 8 -27 5 -14 -4 -20 -1 -18 8 2 7 -1 14 -7 14 -19 2 -65 28 -65 37 0 4 -5
7 -11 6 -6 -2 -13 5 -14 15 -2 11 -7 22 -11 25 -4 4 -4 -1 -1 -11 5 -14 3 -18
-11 -15 -10 2 -16 11 -14 23 2 19 2 19 -8 2 -7 -10 -16 -14 -23 -10 -7 4 -19
8 -27 8 -8 1 -24 2 -36 3 -12 1 -26 12 -33 25 -6 12 -10 15 -7 6 3 -13 -6 -15
-55 -15 -44 0 -56 3 -48 12 6 8 5 13 -5 17 -8 3 -13 -1 -12 -11 0 -9 -6 -17
-14 -17 -8 0 -14 8 -14 17 1 10 -4 14 -12 11 -10 -4 -12 -9 -4 -18 10 -11 -28
-20 -138 -30 -13 -1 -28 -8 -33 -16 -5 -8 -9 -9 -9 -4 0 6 -5 3 -10 -5 -9 -13
-10 -13 -10 0 -1 12 -3 11 -11 -2 -5 -10 -16 -18 -24 -18 -7 0 -27 -11 -43
-25 -19 -15 -33 -21 -37 -15 -3 5 -4 14 -1 18 3 5 -1 9 -9 9 -11 0 -11 -5 -4
-19 9 -16 4 -26 -27 -58 -21 -21 -42 -36 -47 -33 -6 4 -7 1 -3 -6 5 -7 1 -20
-8 -30 -9 -10 -32 -49 -51 -87 -28 -55 -35 -64 -35 -41 0 34 3 43 13 39 5 -1
6 2 3 7 -4 5 0 12 6 15 7 3 3 3 -10 0 -21 -5 -22 -3 -16 33 3 21 11 41 18 45
8 6 7 8 -2 8 -7 0 -11 4 -8 8 3 5 7 22 10 38 3 16 10 30 16 32 5 2 7 9 4 14
-4 6 1 17 11 25 14 9 15 13 4 13 -10 1 -9 5 5 15 11 8 16 15 12 15 -16 0 33
65 87 116 79 73 156 117 176 101 12 -9 13 -9 7 1 -7 12 4 16 33 13 7 -2 11 2
7 7 -3 5 0 9 7 10 84 10 98 10 94 -2 -3 -7 1 -13 8 -13 8 0 11 7 7 16 -5 14
-4 14 11 2 15 -12 17 -12 11 3 -8 20 0 21 20 0z m16 -315 c-12 -22 -31 -21
-38 2 -3 11 -2 11 7 -1 10 -13 13 -13 22 3 14 24 22 21 9 -4z m58 3 c-4 -15 1
-19 22 -19 16 0 27 5 26 11 -2 6 -1 8 1 3 3 -4 9 -5 14 -1 5 3 9 0 9 -7 0 -9
3 -9 14 0 11 10 17 8 26 -6 8 -13 13 -14 16 -5 3 6 10 12 15 12 6 0 8 -4 5 -8
-15 -24 39 -50 56 -27 5 6 8 5 8 -3 0 -8 5 -10 13 -6 7 5 6 0 -3 -11 -14 -17
-13 -18 2 -12 9 3 22 0 28 -8 7 -8 17 -13 23 -12 12 2 13 -7 2 -34 -4 -10 0
-16 10 -16 10 0 14 6 10 15 -5 13 -3 13 11 1 10 -8 12 -15 5 -17 -6 -2 -11 -8
-11 -14 0 -6 6 -8 13 -5 8 3 14 0 15 -6 0 -7 3 -21 6 -32 2 -11 5 -22 5 -25 1
-3 6 2 12 10 9 13 10 12 5 -2 -3 -10 -1 -20 4 -23 6 -4 11 2 11 12 1 17 2 17
6 0 2 -9 8 -15 13 -12 5 3 7 12 4 19 -3 8 -1 16 4 20 10 6 9 -24 -2 -42 -4 -6
-4 -16 -1 -22 3 -5 0 -20 -7 -32 -12 -22 -13 -27 -16 -57 -2 -11 -5 -11 -19 0
-15 12 -16 12 -9 -6 16 -41 14 -54 -10 -70 -13 -8 -24 -20 -24 -26 0 -7 6 -6
18 2 15 13 16 12 3 -4 -8 -9 -16 -15 -19 -12 -10 10 -31 -17 -25 -33 4 -13 2
-12 -11 3 -17 20 -17 20 -11 -1 4 -16 -3 -30 -25 -52 -16 -17 -30 -27 -30 -24
0 4 -5 0 -10 -8 -7 -10 -10 -11 -11 -2 -1 6 -3 17 -4 22 -1 6 -3 13 -4 18 -1
4 -5 0 -11 -8 -5 -9 -5 -19 1 -27 12 -13 3 -36 -11 -28 -4 3 -11 -2 -14 -11
-4 -9 -9 -14 -13 -10 -4 3 -18 -4 -32 -16 -14 -13 -20 -16 -13 -8 21 24 13 32
-12 13 -13 -10 -22 -21 -20 -25 3 -4 -7 -5 -22 -2 -17 3 -23 1 -19 -7 5 -8 0
-7 -15 1 -20 11 -22 10 -17 -4 4 -11 3 -15 -4 -11 -5 4 -7 16 -3 28 6 20 5 20
-10 8 -10 -8 -14 -21 -11 -30 5 -13 4 -13 -6 -4 -10 10 -9 16 1 28 12 14 12
16 -1 15 -35 -5 -41 -1 -25 22 21 29 20 34 -4 34 -14 0 -18 -5 -15 -16 3 -9
-1 -25 -9 -35 -12 -16 -16 -17 -30 -6 -14 12 -15 10 -12 -18 2 -23 0 -29 -9
-21 -8 6 -15 6 -23 -2 -8 -8 -13 -7 -18 5 -3 9 -11 14 -17 10 -6 -3 -7 -1 -3
5 9 14 1 15 -23 3 -13 -8 -24 -4 -44 15 -16 15 -27 20 -27 12 0 -8 -5 -6 -11
5 -5 9 -15 17 -20 17 -6 0 -7 -4 -4 -10 3 -6 -1 -7 -9 -4 -9 3 -16 10 -16 16
0 5 5 6 10 3 6 -3 10 -1 10 5 0 6 4 9 9 6 5 -3 14 0 20 7 8 11 5 14 -19 14
-17 0 -27 -5 -23 -10 3 -6 1 -7 -5 -3 -7 4 -12 2 -12 -3 0 -6 -5 -11 -12 -11
-9 0 -9 3 0 12 20 20 14 26 -20 22 -32 -4 -32 -4 -11 11 19 13 26 13 43 3 17
-11 22 -11 30 2 14 22 12 30 -5 24 -8 -4 -12 -11 -8 -17 3 -5 1 -7 -5 -4 -11
8 -5 44 9 53 5 3 9 13 9 22 0 14 -2 15 -9 2 -6 -8 -24 -14 -45 -13 -20 0 -36
-1 -36 -3 0 -1 4 -14 10 -28 6 -17 6 -27 -2 -32 -6 -4 -8 -3 -5 3 4 6 0 14 -9
17 -12 4 -15 2 -10 -9 8 -22 -2 -18 -15 6 -9 17 -8 20 2 14 9 -6 11 -3 6 9 -4
10 -2 26 3 37 7 12 7 19 1 19 -13 0 -32 -35 -24 -44 3 -3 1 -6 -5 -6 -6 0 -14
5 -17 10 -3 6 -1 10 4 10 6 0 11 5 11 11 0 6 -6 9 -14 6 -18 -7 -37 15 -27 31
4 6 18 13 31 15 25 4 42 37 20 37 -6 0 -8 -6 -4 -12 4 -7 4 -10 -1 -6 -4 4
-14 3 -22 -4 -22 -18 -41 7 -25 33 7 11 10 24 7 29 -4 6 0 10 7 11 9 0 10 2 1
5 -8 4 -3 20 16 52 15 26 27 49 27 52 0 29 14 49 33 45 18 -3 21 0 16 14 -6
21 41 75 75 86 11 4 18 10 15 15 -3 5 -1 11 4 14 5 4 12 2 16 -4 4 -6 11 -7
17 -4 6 4 5 10 -3 15 -10 6 -10 9 -2 9 16 0 26 -17 13 -25 -12 -8 -4 -25 12
-25 6 0 8 3 5 6 -3 4 -2 15 3 25 6 9 7 19 2 22 -4 2 -2 2 5 1 6 -2 23 6 37 17
24 19 25 19 19 2 -6 -15 -4 -16 9 -5 8 7 24 9 33 5 11 -4 16 -2 12 4 -3 5 0
10 8 10 8 0 16 -6 19 -12 6 -18 88 -14 94 4 3 9 0 11 -8 6 -9 -5 -11 -4 -6 4
6 9 11 9 22 0 11 -9 14 -8 14 5 0 9 3 16 6 16 4 0 4 -8 2 -18z m652 -83 c0 -5
5 -9 11 -9 5 0 8 4 5 9 -3 5 10 9 29 9 19 0 37 -4 40 -9 3 -4 13 -5 22 -2 11
4 14 3 9 -5 -5 -8 -2 -10 8 -6 9 4 16 1 16 -6 0 -7 6 -10 14 -7 8 3 20 -1 26
-8 7 -8 15 -14 18 -13 19 2 33 -3 28 -11 -3 -5 4 -11 15 -14 12 -3 18 -10 14
-17 -3 -6 -1 -9 6 -8 15 4 66 -69 75 -108 10 -43 10 -156 -1 -179 -4 -11 -9
-34 -10 -51 -1 -17 -6 -37 -10 -44 -5 -8 -4 -11 3 -6 5 3 12 2 14 -4 2 -6 9 0
17 12 13 22 13 22 -4 8 -16 -13 -18 -13 -13 0 6 20 77 21 89 0 5 -10 8 -11 9
-2 0 6 5 12 11 12 5 0 7 -6 3 -12 -5 -9 -2 -9 9 1 11 8 17 9 17 3 0 -7 7 -9
17 -5 11 4 14 3 9 -5 -5 -8 -2 -10 8 -6 9 3 16 1 16 -6 0 -6 4 -8 10 -5 13 8
72 -24 65 -36 -4 -5 -3 -9 2 -8 21 4 33 -2 33 -17 0 -8 4 -13 9 -10 5 3 15 -2
22 -11 12 -15 12 -16 -3 -10 -12 4 -15 2 -12 -8 3 -8 11 -12 17 -9 7 2 18 -5
25 -17 8 -12 9 -19 4 -15 -5 3 -9 -1 -9 -8 0 -8 7 -12 15 -8 10 3 13 1 8 -6
-4 -7 -2 -12 4 -12 6 0 8 -4 5 -10 -3 -5 -2 -10 3 -10 13 0 22 -40 28 -133 5
-67 3 -81 -13 -99 -10 -12 -12 -18 -5 -14 6 4 12 2 12 -3 0 -6 -4 -11 -10 -11
-5 0 -9 -6 -7 -12 1 -7 -5 -12 -13 -10 -12 3 -12 1 -3 -9 9 -9 6 -21 -17 -53
-37 -53 -90 -102 -91 -84 0 7 -5 4 -10 -8 -6 -11 -25 -26 -42 -32 -28 -11 -34
-10 -46 5 -12 16 -12 16 -6 -6 6 -19 4 -23 -8 -18 -8 3 -18 3 -22 -1 -12 -12
-86 -11 -79 0 5 7 2 8 -7 2 -20 -13 -79 -12 -71 1 3 5 -1 4 -10 -3 -18 -14
-68 -12 -68 3 0 7 -3 7 -8 0 -4 -6 -31 -11 -60 -12 -46 -1 -53 1 -48 15 5 15
4 15 -6 2 -17 -20 -49 -25 -59 -8 -5 7 -9 8 -9 3 0 -6 -12 -12 -26 -13 -22 -2
-24 1 -19 21 6 21 6 21 -7 2 -9 -14 -25 -21 -51 -22 -24 -1 -35 2 -31 9 5 7 2
8 -7 2 -7 -4 -36 -9 -62 -10 -42 -2 -48 0 -43 14 5 15 4 15 -6 2 -17 -20 -49
-25 -59 -8 -5 7 -9 8 -9 3 0 -6 -12 -12 -26 -13 -22 -2 -24 1 -19 21 6 21 6
21 -7 2 -9 -14 -25 -21 -51 -22 -24 -1 -35 2 -31 9 5 7 2 8 -7 2 -20 -13 -79
-12 -71 1 3 5 -1 5 -9 -2 -18 -14 -81 -14 -72 0 4 6 1 7 -8 1 -19 -12 -79 -13
-72 0 4 5 1 6 -8 0 -8 -5 -63 -9 -122 -9 -93 -1 -107 1 -102 15 4 13 4 13 -7
0 -9 -10 -32 -16 -66 -17 -46 -1 -53 1 -48 15 5 15 4 15 -6 2 -17 -20 -49 -25
-59 -8 -5 7 -9 8 -9 3 0 -6 -12 -12 -26 -13 -22 -2 -24 1 -19 21 6 22 6 22 -7
2 -11 -18 -24 -21 -80 -22 -38 0 -68 3 -68 7 0 3 -16 7 -35 7 -21 0 -41 7 -52
19 -10 11 -14 14 -9 7 14 -21 -2 -15 -47 16 -64 44 -103 96 -98 130 1 7 -2 10
-7 7 -9 -5 -13 6 -30 89 -11 56 -5 177 9 186 10 6 10 9 2 9 -15 0 -7 27 16 54
9 10 15 21 14 25 -2 3 8 6 21 5 16 0 22 4 19 13 -4 10 -9 11 -19 2 -11 -9 -14
-9 -14 0 0 6 7 14 15 17 8 4 15 10 15 16 0 12 30 43 30 31 0 -4 5 0 11 9 5 10
19 22 29 28 16 9 19 8 14 -7 -3 -11 0 -10 7 3 10 19 25 26 88 40 8 1 25 5 38
9 17 4 23 1 23 -10 0 -9 4 -13 10 -10 6 3 10 3 10 -2 0 -4 13 -22 30 -39 16
-18 26 -35 22 -39 -4 -5 1 -5 11 -2 16 6 21 -2 18 -30 -1 -7 3 -13 9 -13 6 0
8 5 5 10 -11 18 9 10 54 -20 24 -17 50 -30 58 -30 7 0 13 -5 13 -12 0 -6 3 -8
6 -5 4 3 16 1 28 -5 11 -7 27 -13 34 -15 6 -2 20 -5 30 -7 9 -3 21 -5 25 -5 5
-1 6 -5 2 -10 -3 -6 -14 -8 -24 -6 -10 2 -24 -1 -32 -6 -10 -6 -7 -8 11 -5 14
2 32 0 41 -5 13 -6 16 -4 15 9 -1 12 5 16 19 14 53 -7 124 -7 160 -1 22 4 56
10 75 14 48 8 52 9 76 23 12 6 24 8 28 5 3 -3 6 -2 6 4 0 5 20 18 44 28 25 10
43 22 40 27 -3 4 1 8 8 8 12 0 92 75 136 127 15 18 21 20 32 10 10 -10 10 -8
1 10 -8 17 -8 24 1 30 7 4 13 13 13 18 1 6 9 29 19 53 13 29 23 41 33 38 8 -3
12 -2 8 3 -3 5 -2 11 2 14 5 2 2 2 -4 1 -14 -4 -17 8 -5 20 8 8 9 14 11 50 1
18 6 23 24 22 12 0 26 -5 30 -11 5 -6 7 -4 4 5 -2 8 -13 15 -25 15 -28 0 -40
14 -22 25 12 8 12 10 1 10 -10 0 -10 6 4 26 9 15 12 23 6 19 -8 -5 -11 2 -8
22 2 15 0 33 -5 40 -6 8 -3 15 11 23 12 6 21 7 21 3 0 -4 4 -3 8 3 14 22 112
42 112 23z m-1034 -430 c10 -17 -13 -36 -27 -22 -12 12 -4 33 11 33 5 0 12 -5
16 -11z m314 -169 c0 -5 -5 -12 -12 -16 -6 -4 -8 -3 -4 4 3 6 2 13 -3 16 -5 3
-12 -1 -15 -10 -3 -8 -10 -12 -16 -9 -16 10 -12 23 8 27 21 5 42 -1 42 -12z"/>
<path d="M835 1891 c-3 -5 -2 -12 3 -15 5 -3 9 1 9 9 0 17 -3 19 -12 6z"/>
<path d="M868 1878 c10 -13 10 -17 0 -20 -8 -3 -6 -7 6 -11 9 -4 15 -3 11 2
-3 5 -1 11 5 13 6 2 0 9 -12 17 -21 13 -22 13 -10 -1z"/>
<path d="M954 1850 c0 -22 4 -40 8 -40 7 0 3 68 -4 76 -3 2 -5 -14 -4 -36z"/>
<path d="M996 1878 c3 -5 10 -6 15 -3 13 9 11 12 -6 12 -8 0 -12 -4 -9 -9z"/>
<path d="M1067 1867 c-3 -7 3 -13 14 -13 13 0 15 3 7 13 -6 7 -12 13 -13 13
-2 0 -5 -6 -8 -13z"/>
<path d="M790 1856 c13 -18 13 -19 -1 -14 -9 4 -16 1 -16 -7 0 -9 6 -11 16 -6
9 5 22 6 29 4 6 -3 12 1 12 8 0 7 -3 9 -7 6 -3 -4 -16 1 -27 10 -20 17 -20 17
-6 -1z"/>
<path d="M1027 1859 c7 -7 15 -10 18 -7 3 3 -2 9 -12 12 -14 6 -15 5 -6 -5z"/>
<path d="M1122 1858 c-17 -17 -15 -25 11 -31 21 -6 21 -6 3 8 -18 14 -15 20 7
16 5 -1 6 3 2 9 -8 13 -8 13 -23 -2z"/>
<path d="M691 1851 c-8 -5 -15 -20 -15 -33 -1 -12 -5 -28 -8 -33 -4 -6 2 -11
12 -11 18 0 18 2 -2 37 -1 4 6 16 16 28 20 22 20 26 -3 12z"/>
<path d="M1027 1826 c-4 -10 -1 -13 8 -9 8 3 12 9 9 14 -7 12 -11 11 -17 -5z"/>
<path d="M868 1812 c3 -9 1 -13 -5 -9 -5 3 -10 0 -10 -8 0 -8 5 -11 11 -7 17
11 70 9 79 -3 5 -6 7 -4 4 5 -2 10 -15 15 -36 14 -20 0 -30 4 -27 11 2 6 -2
12 -9 12 -8 0 -11 -7 -7 -15z"/>
<path d="M1065 1823 c13 -10 13 -43 0 -63 -7 -12 -6 -13 7 -3 19 16 17 65 -2
71 -9 2 -11 0 -5 -5z"/>
<path d="M730 1807 c-20 -16 -22 -34 -5 -34 7 0 11 7 7 15 -3 9 -1 13 5 9 5
-3 10 0 10 8 0 8 -1 15 -1 15 -1 0 -8 -6 -16 -13z"/>
<path d="M1173 1805 c0 -8 7 -11 16 -7 13 5 14 3 4 -9 -10 -12 -8 -15 10 -16
12 0 16 1 9 4 -10 4 -10 8 0 21 7 10 9 14 4 10 -5 -4 -16 -3 -26 2 -12 6 -17
5 -17 -5z"/>
<path d="M596 1782 c-3 -5 1 -9 9 -9 8 0 12 4 9 9 -3 4 -7 8 -9 8 -2 0 -6 -4
-9 -8z"/>
<path d="M997 1777 c4 -6 0 -8 -9 -5 -8 4 -15 0 -15 -7 0 -10 5 -11 18 -4 24
12 31 26 14 26 -8 0 -11 -5 -8 -10z"/>
<path d="M634 1766 c1 -8 5 -18 8 -22 4 -3 5 1 4 10 -1 8 -5 18 -8 22 -4 3 -5
-1 -4 -10z"/>
<path d="M811 1766 c-9 -10 -8 -15 2 -19 8 -3 13 3 13 14 0 23 0 23 -15 5z"/>
<path d="M760 1760 c-12 -7 -10 -9 8 -7 12 0 22 5 22 9 0 11 -12 10 -30 -2z"/>
<path d="M1095 1759 c-4 -6 -4 -13 -1 -16 3 -4 6 -1 6 7 0 10 4 10 18 -1 15
-13 16 -12 3 4 -16 20 -18 20 -26 6z"/>
<path d="M1240 1760 c-9 -6 -10 -10 -3 -10 6 0 15 5 18 10 8 12 4 12 -15 0z"/>
<path d="M559 1748 c-5 -18 -6 -38 -1 -34 7 8 12 36 6 36 -2 0 -4 -1 -5 -2z"/>
<path d="M586 1743 c6 -4 10 -21 9 -36 -1 -15 1 -30 5 -32 3 -2 6 12 5 32 0
23 -6 38 -15 41 -10 2 -11 1 -4 -5z"/>
<path d="M669 1730 c5 -8 6 -21 4 -27 -3 -7 0 -13 5 -13 6 0 9 8 7 18 -1 9 1
22 6 27 5 7 1 11 -11 11 -13 0 -16 -5 -11 -16z"/>
<path d="M1149 1730 c5 -8 6 -21 4 -27 -3 -7 0 -13 5 -13 6 0 9 8 7 18 -1 9 1
22 6 27 5 7 1 11 -11 11 -13 0 -16 -5 -11 -16z"/>
<path d="M857 1730 c15 -16 53 -24 53 -11 0 5 -8 8 -17 6 -10 -1 -25 2 -33 8
-12 9 -13 9 -3 -3z"/>
<path d="M1050 1730 c-9 -6 -10 -10 -3 -10 6 0 15 5 18 10 8 12 4 12 -15 0z"/>
<path d="M1313 1725 c0 -8 4 -12 9 -9 5 3 6 10 3 15 -9 13 -12 11 -12 -6z"/>
<path d="M741 1714 c0 -11 3 -14 6 -6 3 7 2 16 -1 19 -3 4 -6 -2 -5 -13z"/>
<path d="M771 1714 c0 -11 3 -14 6 -6 3 7 2 16 -1 19 -3 4 -6 -2 -5 -13z"/>
<path d="M816 1713 c-6 -14 -5 -15 5 -6 7 7 10 15 7 18 -3 3 -9 -2 -12 -12z"/>
<path d="M1253 1714 c0 -6 9 -9 19 -6 27 7 29 17 4 17 -13 0 -23 -5 -23 -11z"/>
<path d="M1278 1693 c7 -3 16 -2 19 1 4 3 -2 6 -13 5 -11 0 -14 -3 -6 -6z"/>
<path d="M510 1679 c0 -5 5 -7 10 -4 6 3 10 8 10 11 0 2 -4 4 -10 4 -5 0 -10
-5 -10 -11z"/>
<path d="M1350 1681 c0 -5 7 -15 17 -22 15 -13 15 -12 4 9 -12 23 -21 28 -21
13z"/>
<path d="M666 1663 c-6 -14 -5 -15 5 -6 7 7 10 15 7 18 -3 3 -9 -2 -12 -12z"/>
<path d="M693 1665 c0 -8 4 -12 9 -9 5 3 6 10 3 15 -9 13 -12 11 -12 -6z"/>
<path d="M1309 1664 c6 -3 7 -12 4 -20 -3 -8 -1 -14 5 -14 14 0 8 33 -7 36 -6
1 -7 0 -2 -2z"/>
<path d="M628 1653 c7 -3 16 -2 19 1 4 3 -2 6 -13 5 -11 0 -14 -3 -6 -6z"/>
<path d="M550 1640 c0 -5 5 -10 10 -10 6 0 10 5 10 10 0 6 -4 10 -10 10 -5 0
-10 -4 -10 -10z"/>
<path d="M507 1613 c3 -7 6 -13 8 -13 2 0 5 6 8 13 3 8 -1 14 -8 14 -7 0 -11
-6 -8 -14z"/>
<path d="M576 1607 c3 -10 9 -15 12 -12 3 3 0 11 -7 18 -10 9 -11 8 -5 -6z"/>
<path d="M494 1560 c0 -13 5 -16 16 -11 8 5 21 6 28 4 6 -3 12 0 12 5 0 6 -8
9 -17 7 -10 -1 -23 1 -28 6 -7 5 -11 1 -11 -11z"/>
<path d="M450 1521 c0 -6 4 -13 10 -16 6 -3 7 1 4 9 -7 18 -14 21 -14 7z"/>
<path d="M473 1470 c1 -11 5 -20 9 -20 3 0 6 9 5 20 -1 11 -5 20 -9 20 -3 0
-6 -9 -5 -20z"/>
<path d="M1121 1576 c-7 -8 -8 -17 -3 -20 6 -3 12 3 15 14 6 24 4 25 -12 6z"/>
<path d="M845 1569 c-3 -4 -12 -6 -20 -3 -16 6 -58 -32 -50 -46 13 -21 -19
-20 -42 1 -15 13 -23 19 -19 12 4 -7 -3 -17 -16 -24 -13 -7 -36 -25 -52 -41
-25 -23 -28 -30 -16 -41 10 -10 11 -9 5 2 -6 10 -4 12 5 6 10 -6 12 -4 6 11
-6 15 -5 16 5 7 9 -9 9 -16 1 -26 -7 -8 -10 -16 -7 -19 3 -2 -11 -4 -30 -3
-23 1 -34 -2 -32 -9 3 -6 11 -9 18 -7 8 2 25 4 38 5 16 1 25 8 27 21 4 27 26
65 34 60 4 -3 13 2 20 10 9 11 9 15 1 15 -7 0 -9 5 -5 11 4 8 9 7 15 -2 4 -8
3 -19 -3 -26 -12 -15 3 -18 18 -3 5 5 21 11 34 13 17 3 26 11 28 27 2 14 0 20
-7 16 -6 -4 -11 -3 -11 3 0 5 17 8 38 6 20 -1 43 2 50 7 6 6 12 7 12 2 0 -5 5
-2 11 6 8 12 9 11 5 -6 -5 -14 -2 -21 9 -21 17 0 18 6 5 27 -10 16 -67 23 -75
9z m25 -9 c0 -5 -4 -10 -10 -10 -5 0 -10 5 -10 10 0 6 5 10 10 10 6 0 10 -4
10 -10z m-199 -93 c-10 -9 -11 -8 -5 6 3 10 9 15 12 12 3 -3 0 -11 -7 -18z"/>
<path d="M1005 1571 c-3 -2 -5 -9 -5 -15 0 -6 5 -4 10 4 7 11 10 11 10 2 0 -7
4 -10 10 -7 5 3 7 0 4 -8 -3 -8 2 -14 11 -14 10 0 13 6 9 19 -3 10 0 18 6 18
6 0 8 -5 4 -12 -4 -6 -3 -8 4 -5 5 4 17 4 26 1 13 -5 12 -9 -7 -25 -12 -10
-17 -18 -10 -19 6 0 15 5 18 10 4 6 11 7 17 4 6 -4 18 2 26 12 14 18 14 18 8
1 -4 -13 -2 -17 6 -14 7 2 12 10 10 16 -3 18 8 13 29 -11 10 -13 18 -17 19
-10 0 6 5 12 12 12 6 0 8 -3 5 -7 -4 -3 11 -14 33 -24 22 -10 40 -21 40 -24 0
-3 -13 1 -30 10 -36 19 -41 19 -34 0 3 -8 11 -13 17 -12 7 1 11 -8 10 -21 -2
-15 1 -21 9 -16 6 4 8 3 5 -3 -4 -6 0 -13 8 -17 18 -6 19 -2 4 27 -10 22 -10
22 7 2 15 -18 16 -18 10 -2 -3 10 -1 28 5 39 8 16 8 19 -1 13 -7 -4 -16 -1
-21 6 -4 8 -16 14 -26 14 -10 0 -17 5 -16 12 1 6 -8 10 -23 8 -14 -1 -30 5
-37 14 -17 22 -45 22 -52 0 -4 -11 -11 -19 -16 -19 -6 0 -8 4 -4 9 3 5 1 12
-5 16 -6 4 -8 10 -6 14 5 8 -92 10 -99 2z"/>
<path d="M932 1550 c3 -24 -2 -26 -43 -21 -5 0 -7 6 -3 13 5 8 3 8 -7 2 -8 -5
-23 -9 -34 -9 -11 0 -20 -7 -20 -15 0 -9 8 -14 20 -13 32 3 57 -16 50 -38 -4
-13 -2 -19 7 -17 14 3 15 -15 3 -45 -6 -13 -3 -16 9 -11 9 3 14 10 11 14 -9
15 15 22 30 10 9 -7 15 -8 15 -2 0 5 -7 15 -15 22 -8 7 -15 9 -15 4 0 -11 -25
25 -33 48 -3 10 -1 20 5 24 6 4 8 3 5 -3 -4 -6 0 -14 9 -17 12 -4 15 -2 11 9
-7 18 9 30 19 14 4 -8 11 -4 19 11 10 19 13 20 18 6 4 -10 3 -15 -3 -11 -6 3
-10 1 -10 -4 0 -6 7 -11 15 -11 8 0 15 5 15 11 0 5 5 7 11 3 8 -4 7 -9 -2 -15
-8 -5 -9 -9 -3 -9 5 0 15 5 22 12 12 12 17 2 13 -29 -1 -9 5 -9 25 2 27 14 54
10 54 -7 0 -6 8 -2 18 9 9 10 14 14 10 9 -17 -22 -6 -29 11 -9 16 19 20 20 25
7 3 -8 11 -12 17 -8 8 4 9 3 5 -4 -4 -7 -1 -12 6 -12 8 0 9 -3 3 -8 -19 -13
-17 -35 2 -28 9 4 14 4 10 0 -4 -4 1 -13 11 -20 16 -12 15 -13 -7 -22 -14 -5
-40 -7 -58 -5 -32 3 -33 3 -16 -15 10 -10 20 -14 21 -10 2 4 8 8 13 8 6 0 3
-10 -5 -22 -21 -29 -20 -34 4 -34 13 0 19 5 15 14 -9 24 14 54 37 46 13 -4 18
-2 14 4 -4 6 2 15 11 21 16 9 16 10 2 11 -18 0 -30 22 -25 42 1 7 1 10 -1 6
-3 -5 -9 -8 -14 -8 -5 0 -8 3 -7 8 4 14 -14 52 -22 47 -4 -3 -13 2 -20 10 -8
10 -17 12 -24 6 -6 -5 -22 -8 -36 -7 -14 1 -30 -2 -37 -7 -22 -16 -36 3 -17
24 9 10 12 19 7 19 -6 0 -13 -6 -16 -14 -7 -18 -35 -15 -48 5 -5 8 -9 10 -9 4
0 -5 -7 -1 -15 9 -8 11 -15 15 -15 9 0 -13 -32 -12 -43 2 -4 6 -6 -1 -5 -15z"/>
<path d="M943 1513 c4 -6 4 -19 1 -28 -5 -13 -8 -14 -15 -3 -5 7 -9 8 -9 2 0
-5 14 -20 30 -33 24 -17 29 -27 25 -44 -5 -18 -4 -19 5 -7 9 12 10 10 5 -10
-7 -24 -6 -24 11 -8 17 17 17 18 -2 39 -10 13 -14 19 -7 16 6 -4 14 -3 17 2 7
11 -22 23 -36 14 -7 -4 -8 -1 -3 7 5 8 4 11 -2 7 -5 -3 -10 0 -10 7 0 7 6 13
13 13 7 0 11 -4 8 -9 -3 -4 0 -8 5 -8 6 0 11 3 11 8 0 10 -20 39 -20 28 0 -5
-8 -2 -17 5 -9 8 -14 9 -10 2z"/>
<path d="M804 1489 c-3 -5 -10 -7 -15 -4 -5 4 -9 2 -9 -3 0 -6 -8 -9 -17 -8
-10 0 -18 -6 -18 -14 0 -8 -4 -21 -8 -27 -5 -7 -4 -13 2 -13 17 0 33 37 18 44
-6 3 -2 3 10 1 12 -3 24 -1 28 5 3 6 10 8 15 5 5 -3 19 -1 31 5 16 9 24 9 33
0 8 -8 7 -10 -4 -5 -11 4 -16 -1 -17 -16 l-2 -22 21 21 c12 12 19 24 15 28
-11 11 -76 13 -83 3z"/>
<path d="M994 1481 c1 -19 28 -49 39 -44 4 3 4 9 1 15 -4 7 -2 8 4 4 7 -4 12
-2 12 4 0 7 -8 9 -20 5 -12 -4 -20 -2 -20 5 0 6 4 9 9 6 5 -3 14 0 20 7 8 11
5 14 -18 14 -19 0 -28 -5 -27 -16z"/>
<path d="M1100 1482 c0 -6 -6 -9 -13 -6 -7 2 -23 -9 -35 -25 -16 -21 -27 -28
-40 -24 -15 6 -15 5 -3 -10 12 -15 11 -20 -3 -35 -19 -21 -20 -32 -5 -32 5 0
7 5 4 10 -3 6 -1 11 4 11 6 1 17 2 23 3 7 0 14 10 16 21 3 17 1 18 -8 5 -10
-13 -11 -13 -7 0 2 8 9 14 15 13 7 -2 9 4 5 14 -5 12 -3 14 7 8 9 -5 11 -4 6
4 -4 6 -4 11 1 10 19 -3 27 2 14 10 -10 7 -7 9 12 8 14 -1 23 -5 20 -9 -2 -5
1 -8 6 -8 6 0 11 -5 11 -11 0 -8 -6 -7 -16 2 -14 11 -19 10 -35 -10 -23 -28
-24 -42 -4 -35 8 3 13 11 12 17 -1 7 8 12 21 12 12 0 27 7 32 15 11 17 13 37
3 27 -3 -4 -15 0 -25 10 -10 9 -18 11 -18 5z"/>
<path d="M1172 1478 c-8 -8 -9 -15 -1 -25 7 -7 8 -13 3 -13 -5 -1 2 -8 16 -16
14 -8 17 -13 7 -10 -10 3 -28 1 -40 -5 -19 -8 -20 -8 -7 3 18 15 24 38 11 38
-5 0 -13 -9 -16 -21 -5 -16 -13 -20 -33 -15 -15 3 -21 3 -14 0 6 -3 12 -11 12
-16 0 -6 -3 -9 -6 -5 -4 3 -19 0 -35 -9 -16 -8 -32 -14 -35 -13 -4 0 -11 -6
-16 -15 -14 -25 -26 -19 -48 24 -11 22 -26 40 -33 39 -9 0 -9 -2 1 -6 6 -2 12
-9 12 -14 0 -6 -3 -8 -8 -5 -11 6 -46 -17 -50 -32 -1 -8 3 -12 10 -9 7 2 12
10 10 16 -1 7 2 10 8 6 5 -3 10 0 10 7 0 10 2 10 9 0 4 -8 12 -14 17 -15 5 -1
8 -9 8 -19 -1 -10 4 -14 12 -11 12 4 18 -7 16 -28 -1 -4 10 -6 23 -5 14 0 23
6 21 11 -2 6 -9 9 -15 8 -6 -2 -11 1 -11 6 0 10 27 24 50 25 8 1 14 7 12 14
-1 8 2 11 7 8 5 -4 12 0 14 6 4 10 6 10 6 1 1 -7 7 -10 15 -7 19 7 30 -14 16
-31 -9 -11 -7 -14 9 -12 12 1 21 2 21 3 0 2 -4 14 -10 28 -8 21 -6 27 10 36
11 6 20 7 20 2 0 -4 9 -8 20 -8 11 0 20 4 20 8 0 4 8 5 18 2 9 -2 3 3 -15 12
-34 18 -54 57 -24 47 9 -3 12 -1 6 4 -5 4 -13 11 -16 15 -3 4 -11 2 -17 -4z"/>
<path d="M695 1457 c-10 -8 -15 -19 -11 -25 4 -7 2 -12 -5 -12 -7 0 -10 -3 -7
-6 4 -3 20 2 38 11 26 13 29 19 19 31 -14 17 -11 17 -34 1z"/>
<path d="M771 1438 c-28 -30 -41 -99 -15 -77 8 6 11 15 8 20 -3 5 0 9 5 9 6 0
11 4 11 10 0 5 -7 7 -16 3 -14 -5 -14 -3 2 15 9 12 22 18 27 15 6 -4 7 0 3 8
-4 8 -1 6 8 -4 8 -11 12 -26 8 -35 -5 -15 -4 -15 12 -3 12 10 14 17 6 25 -5 5
-10 15 -10 21 0 5 5 3 11 -5 9 -13 10 -13 6 2 -3 9 -1 19 6 21 7 2 -1 4 -17 3
-17 -1 -39 -12 -55 -28z"/>
<path d="M858 1436 c-13 -9 -14 -16 -6 -24 8 -8 7 -16 -3 -28 -12 -16 -12 -17
3 -11 10 3 20 1 24 -5 4 -6 3 -8 -3 -5 -6 4 -14 0 -17 -9 -5 -12 -2 -15 9 -10
11 4 14 2 9 -6 -4 -6 -3 -8 3 -5 6 4 16 0 23 -8 18 -21 35 -19 19 3 -13 15
-12 16 4 3 9 -7 17 -10 17 -6 0 4 9 -3 19 -16 11 -14 17 -33 14 -48 -3 -21 -2
-23 12 -11 12 10 18 10 29 0 12 -9 15 -8 13 9 -1 16 -6 20 -22 16 -17 -5 -17
-4 -4 4 9 6 26 9 38 6 14 -2 19 0 15 7 -4 7 -2 8 5 4 6 -4 9 -12 6 -17 -4 -5
1 -9 9 -9 19 0 17 19 -4 40 -13 12 -13 13 -1 5 12 -8 13 -6 7 10 -5 15 -4 17
4 9 6 -6 12 -21 13 -32 2 -35 56 -14 57 22 0 6 -6 1 -14 -10 -12 -15 -17 -16
-27 -7 -10 10 -9 16 4 31 20 21 22 32 6 32 -5 0 -8 -4 -5 -9 3 -5 -1 -11 -9
-14 -10 -4 -12 -1 -9 11 5 14 4 14 -4 3 -6 -8 -21 -15 -34 -17 -12 -1 -25 -3
-27 -3 -2 -1 2 -8 9 -16 16 -19 8 -27 -30 -32 -25 -2 -30 1 -28 14 2 10 -4 18
-12 18 -8 1 -14 7 -12 14 2 8 -3 11 -12 8 -11 -4 -13 -1 -9 11 6 15 5 15 -11
-1 -36 -36 -52 -7 -29 52 18 47 15 52 -8 11 -13 -23 -18 -27 -13 -11 4 17 3
21 -6 16 -9 -5 -11 -4 -6 4 4 6 12 9 17 6 5 -4 9 -1 9 4 0 14 -11 13 -32 -3z"/>
<path d="M1310 1421 c-7 -17 -19 -31 -28 -31 -13 0 -12 -3 4 -14 15 -12 16
-17 7 -27 -10 -10 -17 -9 -33 6 -24 22 -32 16 -35 -28 -2 -24 1 -34 11 -34 17
0 17 3 3 29 -8 15 -8 23 1 32 8 8 9 7 4 -7 -3 -10 -3 -17 2 -16 5 1 18 1 29 0
17 -1 18 -3 5 -12 -12 -8 -11 -10 5 -7 11 2 21 9 21 16 1 6 2 20 3 30 1 15 3
15 12 2 8 -12 9 -11 6 5 -2 11 -8 19 -15 18 -6 -2 -9 4 -5 13 4 11 8 12 13 4
11 -17 22 18 12 37 -7 12 -12 8 -22 -16z"/>
<path d="M785 1412 c8 -26 -31 -73 -53 -65 -15 6 -15 5 -4 -10 15 -18 7 -41
-12 -34 -8 3 -13 -5 -13 -22 0 -19 5 -27 19 -27 21 0 23 7 6 26 -10 11 -9 11
6 0 18 -13 19 -13 14 1 -7 18 21 81 32 74 5 -3 12 0 17 7 13 21 10 57 -5 63
-9 3 -12 -1 -7 -13z"/>
<path d="M688 1404 c-33 -17 -35 -28 -9 -51 11 -9 17 -23 14 -31 -5 -11 -9 -9
-18 8 -11 21 -12 21 -12 -9 0 -16 5 -29 11 -28 6 1 11 -5 11 -13 0 -8 -6 -14
-12 -12 -15 2 -16 -7 -3 -28 9 -13 10 -13 10 0 0 13 2 13 9 0 7 -9 9 -1 7 25
-4 44 1 65 16 65 5 0 6 -4 3 -10 -3 -5 -1 -10 4 -10 16 0 13 11 -6 33 -10 11
-13 17 -7 14 17 -10 34 16 27 41 -6 26 -9 26 -45 6z m27 -4 c-3 -5 -1 -10 5
-10 21 0 4 -23 -18 -25 -11 -1 -19 2 -16 6 2 4 -2 10 -8 13 -7 3 -3 3 10 0 12
-3 22 -2 21 3 -2 13 1 23 7 23 3 0 2 -4 -1 -10z"/>
<path d="M1339 1399 c-8 -15 -8 -19 0 -15 19 12 12 -13 -9 -34 -14 -14 -16
-20 -6 -20 18 0 38 25 28 35 -4 4 5 0 20 -10 15 -9 25 -22 21 -28 -4 -7 0 -8
13 -3 13 5 16 4 9 -3 -6 -6 -20 -12 -32 -14 -30 -4 -37 -13 -19 -20 9 -4 18
-2 21 3 4 6 11 10 18 10 6 0 1 -7 -12 -16 -18 -13 -20 -18 -10 -25 20 -12 30
-11 27 4 -1 6 3 22 10 35 9 15 10 27 3 40 -6 9 -11 13 -11 8 0 -5 -11 1 -25
14 -13 12 -22 27 -19 31 3 5 0 9 -6 9 -6 0 -8 5 -5 10 3 6 4 10 1 10 -3 0 -10
-10 -17 -21z"/>
<path d="M802 1363 c-23 -24 -40 -49 -37 -54 4 -5 2 -9 -2 -9 -5 0 -9 -8 -9
-17 -1 -10 -4 -27 -8 -38 -6 -16 -6 -17 3 -5 9 13 11 13 11 0 0 -13 1 -13 10
0 13 20 13 33 -1 24 -8 -5 -8 -1 0 14 6 11 8 29 5 39 -5 15 -4 15 5 3 10 -15
12 -13 15 13 1 6 9 11 19 9 9 -2 15 3 13 10 -1 7 -1 10 1 6 3 -5 9 -8 15 -8 7
0 7 4 -1 13 -8 10 -7 17 1 25 6 6 10 13 7 16 -2 2 -23 -16 -47 -41z"/>
<path d="M620 1381 c0 -5 -11 -8 -25 -5 -19 3 -23 1 -19 -11 4 -9 1 -15 -7
-15 -9 0 -5 -8 9 -22 21 -22 23 -22 39 -4 17 17 17 18 -4 12 -26 -8 -38 7 -18
24 10 9 15 9 15 1 0 -6 5 -11 11 -11 5 0 8 4 5 8 -3 5 1 9 9 9 8 0 11 -5 7
-11 -11 -18 -11 -36 0 -36 6 0 5 -7 -3 -17 -11 -16 -11 -16 1 -5 22 19 21 71
-1 83 -12 6 -19 6 -19 0z"/>
<path d="M1164 1355 c6 -21 -29 -90 -42 -81 -13 8 -47 -18 -48 -36 -1 -10 2
-18 7 -18 5 0 9 5 9 11 0 5 4 8 9 4 5 -3 17 5 25 17 9 12 16 18 16 12 0 -6 7
-11 15 -11 17 0 20 13 5 22 -6 4 -8 11 -4 16 3 5 9 7 14 4 10 -6 6 63 -5 73
-4 4 -5 -2 -1 -13z m-49 -95 c-3 -5 -12 -10 -18 -10 -7 0 -6 4 3 10 19 12 23
12 15 0z"/>
<path d="M1270 1360 c0 -5 5 -10 10 -10 6 0 10 5 10 10 0 6 -4 10 -10 10 -5 0
-10 -4 -10 -10z"/>
<path d="M1348 1332 c-7 -9 -20 -17 -28 -17 -8 0 -14 -7 -14 -16 1 -9 -5 -16
-12 -16 -7 0 -12 3 -10 6 1 3 -5 14 -15 23 -18 17 -19 17 -16 -4 2 -21 -2 -22
-46 -21 -37 0 -45 -2 -37 -12 6 -7 7 -21 4 -31 -6 -18 -6 -18 8 0 10 12 20 16
28 11 10 -6 12 -4 8 7 -7 16 0 16 78 4 25 -4 31 -1 30 12 0 9 -5 20 -11 25 -5
4 1 6 15 5 13 -2 25 2 25 9 0 6 4 15 9 20 5 4 6 3 2 -4 -3 -6 -2 -14 3 -17 5
-3 11 0 14 8 8 21 -21 28 -35 8z"/>
<path d="M802 1334 c1 -5 -3 -19 -10 -32 -7 -12 -10 -27 -7 -32 3 -5 2 -18 -4
-27 -7 -14 -21 -18 -61 -17 -55 0 -74 15 -64 47 4 14 1 17 -13 15 -13 -2 -17
2 -15 16 3 17 2 18 -12 7 -14 -12 -20 -11 -37 5 -25 23 -38 9 -44 -44 -1 -13
-8 -34 -15 -48 -17 -32 -6 -42 21 -18 20 18 21 18 35 -1 11 -15 27 -20 63 -21
30 0 48 4 47 10 -2 6 -1 7 2 3 2 -4 10 0 18 10 13 17 15 17 28 0 8 -10 16 -14
18 -10 3 4 4 3 2 -3 -1 -6 11 -11 27 -11 23 0 26 3 18 14 -6 7 -15 10 -20 7
-5 -3 -9 -1 -9 4 0 6 7 13 16 16 9 3 12 11 8 18 -6 10 -5 11 8 1 8 -7 18 -10
21 -6 4 3 7 1 7 -5 0 -7 4 -12 8 -12 4 0 8 9 8 20 0 13 -5 19 -14 15 -23 -8
-33 5 -21 27 9 16 8 19 -3 13 -7 -3 -5 0 5 8 16 13 16 16 2 27 -9 8 -15 9 -13
4z m-227 -41 c2 -10 4 -20 4 -23 1 -3 5 1 10 9 8 12 12 12 25 2 8 -7 21 -9 28
-5 11 6 11 5 0 -8 -7 -9 -9 -18 -5 -20 4 -3 3 -3 -4 -2 -6 2 -14 -4 -17 -13
-4 -11 -2 -14 9 -9 17 6 45 -2 45 -13 0 -13 -59 -8 -64 5 -3 7 -20 11 -39 10
-31 -1 -34 1 -25 17 5 11 16 16 25 13 9 -4 13 -1 10 6 -2 7 -13 12 -23 11 -18
-1 -18 -1 0 13 11 8 14 14 7 14 -7 0 -9 5 -6 11 9 13 15 7 20 -18z"/>
<path d="M591 1262 c-14 -25 -14 -43 -1 -22 9 13 10 13 10 0 0 -11 3 -11 11 3
8 13 8 22 1 29 -7 7 -14 3 -21 -10z"/>
<path d="M833 1321 c1 -13 8 -18 24 -17 13 0 23 6 23 11 0 6 4 4 9 -3 4 -8 7
-27 5 -44 -3 -26 -2 -29 12 -18 12 11 17 11 27 -1 7 -8 8 -11 3 -6 -16 12 -31
8 -18 -5 14 -14 134 -19 126 -6 -3 4 2 5 10 2 19 -7 20 0 5 27 -5 11 -14 17
-20 14 -5 -4 -7 -11 -4 -16 11 -17 -6 -31 -21 -18 -10 8 -18 8 -27 1 -8 -7
-18 -7 -27 -1 -13 8 -13 10 0 20 13 9 13 10 -2 5 -12 -3 -15 -1 -11 9 3 8 10
12 17 8 6 -4 5 1 -3 10 -8 10 -21 15 -31 12 -9 -3 -23 1 -29 9 -7 8 -21 13
-32 11 -10 -2 -19 0 -19 6 0 5 -4 9 -9 9 -6 0 -9 -8 -8 -19z m101 -36 c-7 -16
-24 -21 -24 -6 0 8 7 13 27 20 1 1 0 -6 -3 -14z"/>
<path d="M1110 1320 c0 -5 5 -10 11 -10 5 0 7 5 4 10 -3 6 -8 10 -11 10 -2 0
-4 -4 -4 -10z"/>
<path d="M835 1290 c-11 -5 -15 -9 -10 -9 6 -1 3 -6 -5 -11 -11 -8 -7 -9 14
-4 26 6 28 5 21 -16 -6 -19 -4 -22 9 -17 11 5 15 3 10 -5 -5 -7 -3 -8 6 -3 9
6 11 4 5 -5 -6 -10 -4 -12 8 -7 9 3 23 0 30 -8 10 -10 17 -11 25 -3 8 8 15 8
27 -2 10 -8 15 -9 15 -1 0 6 5 11 11 11 8 0 8 -4 1 -13 -8 -10 -6 -13 9 -14
11 -1 17 2 14 7 -3 5 0 12 6 16 8 5 9 3 4 -7 -7 -11 -5 -11 10 1 15 12 17 12
10 1 -6 -11 -4 -13 9 -8 9 4 15 3 12 -2 -3 -5 1 -12 10 -15 12 -5 14 -1 9 17
-5 17 -4 19 4 7 10 -15 12 -13 15 13 1 6 9 11 19 9 12 -2 15 2 11 13 -6 14 -9
14 -26 -2 -27 -24 -174 -27 -202 -4 -10 9 -21 16 -25 16 -3 0 -6 11 -6 26 1
27 -15 33 -50 19z m39 -16 c5 -14 4 -15 -9 -4 -17 14 -19 20 -6 20 5 0 12 -7
15 -16z"/>
<path d="M1330 1279 c0 -5 5 -7 10 -4 10 6 14 -6 10 -39 -1 -11 3 -15 9 -12 6
4 11 2 11 -3 0 -6 -5 -11 -11 -11 -8 0 -7 -6 2 -17 12 -14 12 -16 0 -8 -9 5
-12 4 -8 -2 4 -6 -1 -10 -11 -9 -10 0 -16 -6 -16 -16 1 -10 -2 -18 -8 -18 -5
0 -6 -5 -2 -12 4 -7 3 -8 -4 -4 -12 7 -6 31 12 55 9 12 8 13 -5 9 -9 -4 -26 0
-38 8 -11 8 -21 12 -21 7 0 -4 -5 -1 -10 7 -5 9 -25 15 -45 16 -20 0 -41 7
-46 15 -8 12 -10 12 -8 -1 4 -36 0 -43 -17 -30 -8 8 -14 9 -12 4 1 -5 -3 -19
-10 -32 -12 -21 -15 -21 -41 -7 -29 15 -41 11 -41 -12 0 -13 20 -14 30 -1 3 4
12 3 20 -2 12 -8 11 -10 -5 -11 -11 -1 -23 -1 -27 0 -10 1 -10 -13 -1 -22 3
-4 12 -2 20 4 10 9 17 8 30 -2 14 -12 16 -12 11 2 -3 9 -2 22 4 30 8 11 9 11
5 -3 -4 -9 1 -19 10 -22 11 -5 14 -2 8 11 -12 32 -10 38 12 36 13 -2 21 2 19
10 -1 6 -1 8 2 4 2 -4 10 0 18 10 13 17 15 17 28 0 8 -10 16 -14 18 -10 3 4 3
2 1 -5 -2 -9 3 -11 15 -8 25 8 58 -17 46 -35 -32 -52 10 -47 61 6 20 22 36 41
36 42 -12 18 -29 73 -24 73 10 0 -19 20 -29 20 -5 0 -8 -5 -8 -11z"/>
<path d="M1225 1252 c-3 -8 -3 -17 0 -20 3 -3 5 0 5 6 0 6 12 0 26 -13 15 -14
30 -22 35 -19 5 3 9 0 9 -7 0 -7 7 -4 15 7 9 10 14 13 13 5 -2 -7 2 -15 8 -18
6 -2 11 3 11 11 0 19 -28 30 -37 16 -5 -8 -9 -6 -14 5 -8 22 -8 25 5 25 5 0 8
-4 5 -8 -2 -4 4 -8 14 -8 11 0 21 5 24 12 7 17 -73 12 -85 -6 -8 -12 -9 -10
-5 6 7 24 -20 30 -29 6z"/>
<path d="M797 1222 c-8 -11 27 -49 41 -44 7 2 10 7 8 11 -3 4 4 7 14 7 10 0
17 -3 14 -7 -2 -4 4 -6 13 -5 10 2 21 -1 24 -6 4 -7 9 -7 13 0 3 5 -1 15 -9
22 -12 10 -15 10 -15 0 0 -9 -6 -8 -19 4 -11 10 -24 15 -30 12 -6 -4 -19 -2
-30 4 -11 5 -22 7 -24 2z"/>
<path d="M710 1195 c0 -8 5 -15 10 -15 6 0 10 7 10 15 0 8 -4 15 -10 15 -5 0
-10 -7 -10 -15z"/>
<path d="M1190 1195 c0 -8 5 -15 10 -15 6 0 10 7 10 15 0 8 -4 15 -10 15 -5 0
-10 -7 -10 -15z"/>
<path d="M947 1194 c-12 -13 -7 -20 13 -20 11 0 19 5 17 10 -4 13 -21 18 -30
10z"/>
<path d="M564 1168 c-3 -5 -10 -6 -15 -3 -5 4 -9 1 -9 -4 0 -6 -3 -10 -7 -8
-5 1 -8 -2 -8 -8 0 -12 34 -15 41 -3 3 5 15 6 27 3 15 -4 18 -3 9 3 -11 7 -10
11 4 16 9 4 22 2 28 -4 8 -8 7 -10 -4 -5 -12 4 -16 -2 -18 -22 -1 -24 0 -25 9
-10 5 9 15 17 22 17 8 0 6 -4 -3 -11 -13 -9 -12 -10 3 -5 9 3 17 0 17 -6 0 -7
6 -3 14 8 14 18 15 18 21 2 4 -10 12 -15 18 -11 5 3 7 1 4 -4 -4 -6 0 -14 9
-17 11 -4 15 -2 11 8 -3 7 0 19 6 26 10 10 8 12 -6 7 -10 -4 -28 -2 -39 4 -15
8 -22 8 -28 -1 -5 -8 -9 -7 -14 5 -8 22 -8 25 5 25 5 0 8 -3 6 -7 -3 -5 6 -9
19 -9 13 -1 22 1 20 5 -3 4 4 7 14 7 10 0 17 -3 14 -7 -2 -4 7 -6 20 -5 13 0
22 4 19 9 -2 4 1 7 7 7 7 0 9 -8 5 -20 -5 -15 -3 -18 9 -14 9 3 13 11 9 17 -3
6 -1 7 5 3 6 -4 8 -14 5 -24 -6 -15 -5 -15 10 -3 13 10 20 11 30 2 8 -6 17 -8
20 -4 9 9 9 23 0 22 -5 -1 -17 -1 -28 0 -16 1 -17 3 -5 11 8 5 17 6 20 2 10
-13 30 -12 30 2 0 10 -8 13 -27 10 -16 -3 -32 -4 -38 -4 -142 5 -257 4 -261
-2z m16 -2 c0 -2 -8 -10 -17 -17 -16 -13 -17 -12 -4 4 13 16 21 21 21 13z"/>
<path d="M990 1169 c-11 -8 -12 -12 -2 -16 6 -2 10 -8 7 -13 -3 -4 2 -13 10
-20 11 -9 15 -9 15 -1 0 7 5 9 11 5 15 -9 -9 -24 -28 -17 -10 4 -10 0 1 -22 8
-15 12 -35 8 -44 -5 -14 -3 -14 10 -3 11 9 18 10 23 2 3 -6 11 -8 16 -5 5 3 6
-1 3 -10 -4 -10 -2 -14 8 -10 7 3 14 13 14 23 1 9 5 25 9 35 5 13 4 16 -9 11
-8 -3 -14 -11 -13 -16 3 -17 -18 -19 -38 -4 -19 14 -19 16 -3 30 10 9 13 11 8
4 -12 -15 -13 -28 -2 -28 5 0 14 12 21 26 9 21 14 24 26 14 8 -6 19 -9 26 -5
6 4 15 1 20 -6 5 -8 9 -9 9 -4 0 20 -17 38 -25 26 -5 -9 -10 -9 -21 0 -11 9
-17 9 -29 -1 -12 -10 -18 -6 -36 24 -11 20 -22 36 -22 36 -1 0 -9 -5 -17 -11z"/>
<path d="M1138 1171 c5 -3 8 -26 7 -51 -2 -39 1 -46 16 -46 11 0 19 4 19 8 0
4 -5 8 -11 8 -5 0 -8 4 -4 9 3 5 1 13 -5 16 -8 5 -8 11 0 20 8 10 7 15 -2 19
-7 3 -2 3 11 0 13 -3 21 -2 18 3 -3 5 3 9 13 9 10 0 17 -3 14 -7 -2 -4 7 -6
20 -5 13 0 22 4 19 9 -2 4 1 7 6 7 14 0 14 -17 1 -25 -5 -3 -10 -14 -9 -23 0
-11 2 -12 6 -4 2 6 10 9 16 5 7 -3 9 -3 5 2 -4 4 -3 14 4 22 17 21 3 27 -78
28 -41 1 -71 -1 -66 -4z"/>
<path d="M886 1137 c-13 -24 -19 -27 -31 -17 -12 10 -18 10 -29 1 -11 -9 -16
-9 -21 0 -8 12 -25 -6 -25 -26 0 -5 4 -4 9 4 5 7 14 10 20 6 7 -4 18 -1 26 5
12 10 17 7 26 -14 7 -14 16 -26 21 -26 12 0 10 14 -4 30 -7 8 -4 7 8 -3 20
-17 22 -17 35 0 12 15 12 16 -2 11 -20 -8 -46 6 -30 16 6 4 11 2 11 -5 0 -8 4
-8 15 1 8 7 12 16 9 21 -3 5 0 9 5 9 6 0 11 4 11 9 0 21 -38 5 -54 -22z"/>
<path d="M942 1145 c-15 -32 -15 -35 -1 -35 5 0 8 4 5 8 -2 4 4 8 14 8 10 0
16 -4 14 -8 -3 -4 0 -8 5 -8 6 0 11 2 11 5 0 11 -24 55 -30 55 -4 0 -12 -11
-18 -25z"/>
<path d="M755 1141 c3 -5 1 -13 -5 -16 -8 -5 -7 -11 1 -21 8 -10 8 -14 0 -14
-6 0 -11 -4 -11 -8 0 -4 8 -8 19 -8 14 0 18 7 16 31 -4 45 -4 45 -16 45 -5 0
-8 -4 -4 -9z"/>
<path d="M1172 1134 c-15 -11 -15 -13 -1 -19 19 -7 20 -65 1 -87 -9 -11 -9
-18 1 -28 9 -11 7 -10 -7 0 -18 14 -19 13 -12 -5 6 -16 5 -17 -5 -8 -9 9 -9
15 0 26 9 12 7 15 -14 15 -21 0 -23 -3 -13 -15 15 -19 -5 -33 -35 -25 -20 5
-20 5 -1 -14 14 -15 22 -17 31 -8 6 6 23 10 37 9 25 -3 41 17 30 38 -3 7 2 3
10 -7 9 -11 16 -15 16 -10 0 6 -5 15 -12 22 -8 8 -8 15 1 26 7 8 9 21 5 27 -4
7 -3 9 3 6 6 -4 14 0 17 9 5 12 1 14 -17 10 -12 -3 -16 -3 -9 0 6 3 9 11 6 16
-4 7 -2 8 4 4 7 -4 12 -1 12 6 0 7 6 2 13 -12 23 -44 26 -59 15 -66 -6 -4 -8
-3 -5 3 4 6 0 13 -8 17 -17 6 -21 -9 -5 -19 6 -4 7 -11 4 -17 -10 -17 29 7 50
31 16 17 17 23 6 36 -7 9 -19 14 -26 11 -8 -3 -18 3 -24 14 -7 13 -6 20 3 23
6 2 -3 4 -21 4 -18 0 -40 -6 -50 -13z m38 2 c0 -2 -7 -7 -16 -10 -8 -3 -12 -2
-9 4 6 10 25 14 25 6z m76 -48 c5 -7 3 -8 -6 -3 -10 6 -12 4 -6 -11 5 -14 4
-16 -5 -7 -6 6 -8 16 -5 22 9 14 13 14 22 -1z"/>
<path d="M586 1114 c-3 -9 -2 -22 2 -31 6 -10 9 -5 9 16 0 35 -2 38 -11 15z"/>
<path d="M831 1096 c-9 -11 -10 -20 -1 -36 6 -11 8 -24 6 -29 -3 -5 1 -12 10
-15 12 -5 15 -2 10 9 -3 9 -2 13 3 10 5 -3 13 -1 16 5 5 8 12 7 23 -2 13 -11
15 -10 9 4 -10 29 52 55 81 34 7 -5 12 -4 12 2 0 6 -9 16 -21 22 -17 10 -27 7
-58 -14 -23 -16 -45 -24 -54 -20 -9 3 -15 9 -13 13 3 4 1 13 -3 19 -6 10 -11
10 -20 -2z m34 -44 c-3 -3 -11 0 -18 7 -9 10 -8 11 6 5 10 -3 15 -9 12 -12z"/>
<path d="M1067 1096 c-4 -10 -1 -13 8 -9 8 3 12 9 9 14 -7 12 -11 11 -17 -5z"/>
<path d="M687 1093 c-4 -3 -7 -11 -7 -17 0 -6 5 -4 10 4 5 8 10 11 11 5 6 -41
5 -55 -4 -55 -6 0 -7 -3 -4 -6 4 -4 13 -2 21 5 19 16 30 -14 11 -33 -8 -7 -11
-17 -8 -20 4 -4 13 4 20 16 12 21 13 21 8 2 -3 -14 3 -28 19 -43 l25 -23 24
26 c16 17 30 24 41 20 10 -4 16 -2 14 4 -2 6 6 17 17 26 15 11 17 18 9 26 -8
8 -14 9 -18 1 -4 -6 -1 -11 6 -12 7 0 4 -4 -7 -8 -11 -5 -28 -4 -38 1 -20 10
-40 2 -31 -14 4 -7 9 -7 13 0 4 6 12 7 20 3 9 -6 8 -10 -7 -13 -29 -8 -49 7
-34 25 10 12 8 15 -13 15 -21 0 -23 -3 -14 -15 10 -11 8 -18 -6 -31 -18 -16
-18 -16 -5 1 11 15 10 21 -10 42 -13 13 -27 22 -33 18 -6 -3 -7 -1 -3 6 4 6
12 9 17 6 15 -10 10 12 -7 29 -17 17 -27 20 -37 9z m123 -135 c0 -6 -8 -4 -17
3 -15 12 -16 12 -10 -5 6 -16 5 -17 -8 -6 -12 10 -13 15 -4 21 15 9 39 1 39
-13z"/>
<path d="M794 1082 c-5 -16 -12 -21 -25 -17 -11 4 -19 2 -19 -4 0 -6 0 -14 0
-18 0 -3 18 -7 40 -8 22 -1 40 -1 40 0 0 2 -7 18 -15 36 -14 32 -15 33 -21 11z
m19 -25 c3 -7 -3 -13 -14 -13 -13 0 -15 3 -7 13 6 7 12 13 13 13 2 0 5 -6 8
-13z"/>
<path d="M1109 1083 c-1 -10 -1 -24 0 -32 2 -7 -2 -10 -8 -6 -6 3 -11 2 -11
-3 0 -10 80 -9 81 2 2 22 -8 28 -28 18 -18 -10 -20 -9 -16 7 3 10 0 22 -6 25
-6 4 -12 -1 -12 -11z"/>
<path d="M928 1066 c-15 -11 -15 -13 3 -24 23 -14 49 -16 49 -2 0 5 -6 7 -14
4 -8 -3 -16 -1 -20 4 -3 5 4 8 16 7 11 -1 25 -10 30 -20 7 -12 7 -16 0 -11 -5
3 -10 -4 -9 -17 0 -12 -3 -31 -7 -42 -6 -14 -5 -16 2 -6 7 9 12 10 16 2 4 -6
12 -9 17 -6 5 4 12 0 15 -9 8 -20 58 -14 62 9 3 11 0 15 -7 10 -6 -3 -8 -12
-4 -18 3 -7 -3 -4 -14 6 -11 9 -23 17 -28 17 -4 0 -1 -8 6 -17 13 -16 12 -17
-4 -4 -12 9 -15 17 -8 24 7 7 16 5 27 -4 16 -12 17 -12 11 3 -4 12 0 21 13 28
14 8 20 8 20 0 0 -6 5 -8 11 -4 19 11 -7 27 -27 16 -11 -5 -28 -6 -39 -1 -11
4 -14 8 -7 8 7 1 10 6 6 12 -4 8 -10 7 -18 -1 -8 -8 -6 -15 8 -26 17 -12 18
-14 3 -14 -9 0 -20 0 -23 1 -4 0 -11 -5 -16 -13 -7 -9 -8 -7 -3 7 13 35 11 70
-5 82 -11 9 -17 9 -22 0 -6 -9 -10 -9 -16 0 -5 8 -11 8 -24 -1z"/>
<path d="M908 1016 c-6 -14 -18 -26 -26 -26 -9 0 -5 -8 12 -21 32 -25 38 -21
42 26 3 43 -12 55 -28 21z m12 -49 c-8 -9 -9 -7 -4 7 5 13 4 17 -4 12 -8 -5
-10 -2 -5 10 6 15 7 15 16 -1 6 -11 5 -21 -3 -28z"/>
<path d="M830 958 c1 -17 30 -56 30 -40 0 7 7 12 16 12 12 0 10 5 -9 20 -29
23 -37 25 -37 8z"/>
<path d="M870 959 c0 -5 5 -7 10 -4 6 3 10 8 10 11 0 2 -4 4 -10 4 -5 0 -10
-5 -10 -11z"/>
<path d="M1747 1493 c5 -12 3 -14 -7 -8 -8 5 -11 4 -6 -3 4 -6 13 -9 22 -5 11
4 12 9 3 19 -15 19 -20 18 -12 -3z"/>
<path d="M1611 1493 c-1 -17 16 -25 25 -12 4 7 3 9 -4 5 -5 -3 -13 0 -15 6 -4
9 -6 10 -6 1z"/>
<path d="M1797 1476 c-4 -10 -29 -13 -101 -12 -53 1 -96 -3 -96 -7 0 -5 -4 -6
-9 -3 -5 3 -12 -5 -15 -18 -6 -23 -4 -34 11 -73 3 -10 7 -24 9 -31 1 -8 5 -17
8 -20 8 -8 2 30 -7 44 -5 9 3 10 28 4 19 -4 37 -5 41 -1 4 3 4 -2 1 -11 -4
-12 -2 -15 8 -11 8 3 12 9 9 15 -3 5 22 7 65 5 56 -3 71 -1 71 10 0 8 5 11 10
8 15 -10 3 68 -13 80 -8 6 -12 16 -10 23 6 16 -4 15 -10 -2z"/>
<path d="M1869 1410 c5 -8 6 -21 4 -27 -3 -7 0 -13 5 -13 6 0 9 8 7 18 -1 9 1
22 6 27 5 7 1 11 -11 11 -13 0 -16 -5 -11 -16z"/>
<path d="M1555 1381 c-3 -5 -2 -12 3 -15 5 -3 9 1 9 9 0 17 -3 19 -12 6z"/>
<path d="M1917 1358 c-7 -5 0 -6 17 -4 16 3 31 7 33 10 8 8 -37 2 -50 -6z"/>
<path d="M1709 1330 c5 -8 6 -21 4 -27 -3 -7 0 -13 5 -13 6 0 9 8 7 18 -1 9 1
22 6 27 5 7 1 11 -11 11 -13 0 -16 -5 -11 -16z"/>
<path d="M1959 1348 c-5 -12 -4 -76 1 -73 4 2 6 17 5 32 -1 15 3 31 9 35 7 5
7 8 -1 8 -7 0 -13 -1 -14 -2z"/>
<path d="M1788 1333 c7 -3 16 -2 19 1 4 3 -2 6 -13 5 -11 0 -14 -3 -6 -6z"/>
<path d="M1878 1333 c7 -3 16 -2 19 1 4 3 -2 6 -13 5 -11 0 -14 -3 -6 -6z"/>
<path d="M1830 1320 c0 -5 5 -10 10 -10 6 0 10 5 10 10 0 6 -4 10 -10 10 -5 0
-10 -4 -10 -10z"/>
<path d="M1995 1320 c3 -5 8 -10 11 -10 2 0 4 5 4 10 0 6 -5 10 -11 10 -5 0
-7 -4 -4 -10z"/>
<path d="M1635 1280 c0 -15 5 -27 10 -27 6 0 10 12 10 27 0 15 -4 27 -10 27
-5 0 -10 -12 -10 -27z"/>
<path d="M1788 1303 c7 -3 16 -2 19 1 4 3 -2 6 -13 5 -11 0 -14 -3 -6 -6z"/>
<path d="M1865 1300 c-3 -6 1 -7 9 -4 18 7 21 14 7 14 -6 0 -13 -4 -16 -10z"/>
<path d="M1908 1303 c7 -3 16 -2 19 1 4 3 -2 6 -13 5 -11 0 -14 -3 -6 -6z"/>
<path d="M1614 1280 c0 -13 4 -16 10 -10 7 7 7 13 0 20 -6 6 -10 3 -10 -10z"/>
<path d="M1555 1279 c-3 -4 2 -6 10 -5 21 3 28 13 10 13 -9 0 -18 -4 -20 -8z"/>
<path d="M2001 1272 c-7 -14 -6 -19 4 -19 7 0 11 7 7 15 -4 11 -1 13 8 7 9 -5
11 -4 6 3 -10 16 -14 15 -25 -6z"/>
<path d="M1713 1258 c2 -7 1 -20 -4 -28 -5 -11 -2 -16 11 -16 12 0 16 4 11 11
-5 5 -7 18 -6 28 2 9 -1 17 -7 17 -5 0 -8 -6 -5 -12z"/>
<path d="M1548 1253 c7 -3 16 -2 19 1 4 3 -2 6 -13 5 -11 0 -14 -3 -6 -6z"/>
<path d="M1788 1253 c7 -3 16 -2 19 1 4 3 -2 6 -13 5 -11 0 -14 -3 -6 -6z"/>
<path d="M1853 1250 c2 -10 15 -15 36 -14 20 0 30 -4 27 -11 -2 -6 2 -12 9
-12 8 0 11 7 7 15 -3 9 -1 13 5 9 5 -3 10 0 10 8 0 8 -5 11 -11 7 -17 -11 -70
-9 -79 3 -5 6 -7 4 -4 -5z"/>
<path d="M1590 1240 c0 -5 5 -10 10 -10 6 0 10 5 10 10 0 6 -4 10 -10 10 -5 0
-10 -4 -10 -10z"/>
<path d="M1833 1232 c2 -12 6 -24 10 -28 3 -4 4 4 2 16 -6 30 -16 40 -12 12z"/>
<path d="M1668 1223 c6 -2 9 -10 6 -15 -4 -7 -2 -8 5 -4 13 9 5 26 -12 25 -9
0 -8 -2 1 -6z"/>
<path d="M1788 1223 c7 -3 16 -2 19 1 4 3 -2 6 -13 5 -11 0 -14 -3 -6 -6z"/>
<path d="M1750 1199 c0 -5 5 -7 10 -4 6 3 10 8 10 11 0 2 -4 4 -10 4 -5 0 -10
-5 -10 -11z"/>
<path d="M1891 1194 c0 -11 3 -14 6 -6 3 7 2 16 -1 19 -3 4 -6 -2 -5 -13z"/>
<path d="M1508 1172 c3 -9 1 -13 -5 -9 -5 3 -10 0 -10 -8 0 -8 5 -11 11 -7 17
11 70 9 79 -3 5 -6 7 -4 4 5 -2 10 -15 15 -36 14 -20 0 -30 4 -27 11 2 6 -2
12 -9 12 -8 0 -11 -7 -7 -15z"/>
<path d="M1678 1183 c7 -3 16 -2 19 1 4 3 -2 6 -13 5 -11 0 -14 -3 -6 -6z"/>
<path d="M1795 1173 c1 -10 -1 -23 -6 -28 -5 -7 -1 -11 11 -11 13 0 16 5 11
16 -5 8 -6 21 -4 28 3 6 0 12 -5 12 -6 0 -9 -8 -7 -17z"/>
<path d="M1988 1172 c3 -9 1 -13 -5 -9 -5 3 -10 0 -10 -8 0 -12 3 -12 15 -2 8
6 17 11 19 9 3 -2 8 0 11 4 4 4 1 3 -7 -1 -10 -6 -13 -4 -9 7 4 8 1 15 -7 15
-8 0 -11 -7 -7 -15z"/>
<path d="M1852 1171 c-11 -7 -11 -9 0 -14 9 -3 15 1 15 9 0 8 -1 14 -1 14 -1
0 -7 -4 -14 -9z"/>
<path d="M1615 1160 c-2 -3 16 -6 40 -6 24 0 42 3 39 5 -7 8 -74 9 -79 1z"/>
<path d="M1713 1155 c0 -8 4 -12 9 -9 5 3 6 10 3 15 -9 13 -12 11 -12 -6z"/>
<path d="M1836 1142 c-3 -5 1 -9 9 -9 8 0 12 4 9 9 -3 4 -7 8 -9 8 -2 0 -6 -4
-9 -8z"/>
<path d="M1611 1124 c0 -11 3 -14 6 -6 3 7 2 16 -1 19 -3 4 -6 -2 -5 -13z"/>
<path d="M1635 1129 c-4 -6 -5 -12 -2 -15 2 -3 7 2 10 11 7 17 1 20 -8 4z"/>
<path d="M1734 1121 c0 -12 6 -17 18 -13 10 2 18 9 18 15 0 6 -3 7 -7 4 -3 -4
-11 -3 -17 3 -8 6 -12 3 -12 -9z"/>
<path d="M1932 1131 c-11 -7 -11 -9 0 -14 9 -3 15 1 15 9 0 8 -1 14 -1 14 -1
0 -7 -4 -14 -9z"/>
<path d="M1880 1120 c18 -12 30 -13 30 -2 0 4 -10 9 -22 9 -18 2 -20 0 -8 -7z"/>
<path d="M1495 1110 c-4 -6 1 -7 11 -3 10 4 15 2 11 -4 -3 -5 0 -10 8 -10 11
0 12 4 4 14 -14 15 -26 17 -34 3z"/>
<path d="M1789 1095 c4 -5 7 -22 6 -36 -1 -15 3 -26 11 -26 11 0 11 3 1 15 -6
8 -12 16 -11 16 0 1 6 10 12 21 9 17 7 21 -8 21 -12 0 -16 -4 -11 -11z"/>
<path d="M1841 1089 c12 -24 26 -31 26 -14 0 8 -5 11 -10 8 -6 -4 -8 0 -5 9 4
8 0 15 -7 15 -10 0 -11 -5 -4 -18z"/>
<path d="M1613 1090 c2 -10 15 -15 36 -14 20 0 30 -4 27 -11 -2 -6 2 -12 9
-12 8 0 11 7 7 15 -3 9 -1 13 5 9 5 -3 10 0 10 8 0 8 -5 11 -11 7 -17 -11 -70
-9 -79 3 -5 6 -7 4 -4 -5z"/>
<path d="M1946 1082 c-3 -5 1 -9 9 -9 8 0 12 4 9 9 -3 4 -7 8 -9 8 -2 0 -6 -4
-9 -8z"/>
<path d="M1552 1050 c12 -19 35 -22 35 -4 0 7 -7 10 -15 6 -9 -3 -13 -1 -9 5
3 5 0 10 -7 10 -11 0 -11 -5 -4 -17z"/>
<path d="M1893 1045 c0 -7 6 -11 14 -8 7 3 13 6 13 8 0 2 -6 5 -13 8 -8 3 -14
-1 -14 -8z"/>
<path d="M1955 1022 c1 -20 -4 -41 -9 -45 -7 -5 -6 -7 4 -5 14 4 23 75 10 83
-3 2 -6 -13 -5 -33z"/>
<path d="M1981 1044 c0 -11 3 -14 6 -6 3 7 2 16 -1 19 -3 4 -6 -2 -5 -13z"/>
<path d="M1490 1042 c0 -5 7 -9 15 -9 8 0 12 4 9 9 -3 4 -9 8 -15 8 -5 0 -9
-4 -9 -8z"/>
<path d="M1740 1040 c8 -5 20 -10 25 -10 6 0 3 5 -5 10 -8 5 -19 10 -25 10 -5
0 -3 -5 5 -10z"/>
<path d="M427 1027 c-3 -8 1 -14 8 -14 7 0 11 6 8 14 -3 7 -6 13 -8 13 -2 0
-5 -6 -8 -13z"/>
<path d="M1434 1025 c1 -8 6 -18 11 -22 4 -4 5 -3 2 4 -4 6 -2 13 5 15 8 3 6
6 -4 10 -10 4 -15 2 -14 -7z"/>
<path d="M1674 1032 c3 -5 0 -13 -6 -15 -9 -4 -10 -6 -1 -6 17 -1 25 16 12 25
-7 4 -9 3 -5 -4z"/>
<path d="M1839 1038 c-5 -19 -8 -50 -4 -46 7 7 15 48 9 48 -2 0 -4 -1 -5 -2z"/>
<path d="M388 1023 c10 -4 10 -8 0 -21 -12 -15 -11 -16 4 -3 19 14 15 32 -5
30 -8 0 -8 -2 1 -6z"/>
<path d="M1709 1010 c5 -8 6 -21 4 -27 -3 -7 0 -13 5 -13 6 0 9 8 7 18 -1 9 1
22 6 27 5 7 1 11 -11 11 -13 0 -16 -5 -11 -16z"/>
<path d="M1906 1022 c-2 -4 4 -8 14 -8 10 0 16 4 14 8 -3 4 -9 8 -14 8 -5 0
-11 -4 -14 -8z"/>
<path d="M2115 1013 c1 -10 -1 -23 -6 -28 -5 -7 -1 -11 11 -11 13 0 16 5 11
16 -5 8 -6 21 -4 28 3 6 0 12 -5 12 -6 0 -9 -8 -7 -17z"/>
<path d="M1580 1011 c0 -5 -13 -7 -30 -6 -16 1 -28 -1 -25 -5 7 -11 58 -5 63
8 2 7 1 12 -2 12 -3 0 -6 -4 -6 -9z"/>
<path d="M1788 1013 c7 -3 16 -2 19 1 4 3 -2 6 -13 5 -11 0 -14 -3 -6 -6z"/>
<path d="M2053 1005 c0 -7 6 -11 14 -8 7 3 13 6 13 8 0 2 -6 5 -13 8 -8 3 -14
-1 -14 -8z"/>
<path d="M2172 1011 c-11 -7 -11 -9 0 -14 9 -3 15 1 15 9 0 8 -1 14 -1 14 -1
0 -7 -4 -14 -9z"/>
<path d="M355 1001 c-3 -5 -2 -12 3 -15 5 -3 9 1 9 9 0 17 -3 19 -12 6z"/>
<path d="M1470 1000 c0 -5 5 -10 11 -10 5 0 7 5 4 10 -3 6 -8 10 -11 10 -2 0
-4 -4 -4 -10z"/>
<path d="M1596 993 c-6 -14 -5 -15 5 -6 7 7 10 15 7 18 -3 3 -9 -2 -12 -12z"/>
<path d="M1876 1002 c-3 -5 1 -9 9 -9 8 0 12 4 9 9 -3 4 -7 8 -9 8 -2 0 -6 -4
-9 -8z"/>
<path d="M2234 1002 c4 -3 14 -7 22 -8 9 -1 13 0 10 4 -4 3 -14 7 -22 8 -9 1
-13 0 -10 -4z"/>
<path d="M1399 987 c11 -14 11 -18 -1 -22 -18 -7 -20 -32 -6 -62 8 -16 8 -26
0 -36 -9 -10 -8 -14 3 -14 8 0 12 4 9 9 -3 4 -1 8 4 8 15 0 30 -23 27 -42 -2
-10 1 -20 5 -23 5 -3 7 3 5 14 -5 25 22 18 30 -8 5 -17 65 -58 65 -45 0 3 6 2
13 -4 9 -8 17 -8 27 0 12 8 12 9 -3 4 -11 -3 -16 -2 -12 4 3 6 16 10 28 10 18
0 19 2 7 10 -8 5 -10 10 -4 10 24 0 4 56 -30 88 -20 17 -33 32 -29 32 4 0 -3
7 -15 16 -12 8 -22 23 -22 32 0 13 -2 14 -9 3 -6 -10 -10 -10 -13 -1 -2 7 -17
13 -34 14 -17 2 -37 7 -45 11 -12 8 -12 6 0 -8z"/>
<path d="M393 976 c-3 -5 -1 -6 5 -2 7 4 12 3 12 -2 0 -16 -27 -21 -41 -9 -11
10 -11 9 -1 -4 12 -17 9 -21 -78 -101 -15 -13 -18 -17 -9 -10 14 11 16 10 12
-13 -3 -13 -9 -22 -14 -19 -5 3 -6 -2 -3 -10 3 -9 10 -13 15 -10 5 3 9 1 9 -4
0 -19 45 -28 80 -16 19 7 29 13 21 13 -8 1 -1 11 15 23 16 12 37 31 48 43 10
11 21 19 25 18 4 -1 8 3 9 10 1 7 4 23 7 37 9 37 -26 71 -71 68 -20 -1 -38 -6
-41 -12z"/>
<path d="M1513 975 c0 -8 4 -12 9 -9 5 3 6 10 3 15 -9 13 -12 11 -12 -6z"/>
<path d="M1638 971 c5 -14 4 -14 -14 -1 -18 14 -18 14 -4 -4 17 -22 20 -57 5
-69 -6 -5 -4 -7 5 -5 9 3 15 18 15 39 1 19 4 40 8 45 3 6 0 11 -7 11 -9 0 -12
-7 -8 -16z"/>
<path d="M1788 983 c7 -3 16 -2 19 1 4 3 -2 6 -13 5 -11 0 -14 -3 -6 -6z"/>
<path d="M2156 982 c-3 -5 1 -9 9 -9 8 0 12 4 9 9 -3 4 -7 8 -9 8 -2 0 -6 -4
-9 -8z"/>
<path d="M295 969 c6 -9 3 -10 -11 -5 -10 4 -15 4 -11 0 4 -4 2 -12 -3 -19 -7
-8 -5 -12 5 -12 8 0 11 5 8 10 -4 6 1 8 11 4 11 -5 15 -3 10 5 -5 7 -2 9 9 5
9 -3 21 1 28 11 11 14 11 15 -1 5 -9 -9 -19 -9 -33 -2 -15 9 -18 8 -12 -2z"/>
<path d="M1355 971 c-3 -5 -2 -12 3 -15 5 -3 9 1 9 9 0 17 -3 19 -12 6z"/>
<path d="M1850 966 c0 -8 4 -17 9 -20 5 -4 7 3 4 14 -6 23 -13 26 -13 6z"/>
<path d="M1875 971 c-3 -5 -2 -12 3 -15 5 -3 9 1 9 9 0 17 -3 19 -12 6z"/>
<path d="M1547 959 c7 -7 15 -10 18 -7 3 3 -2 9 -12 12 -14 6 -15 5 -6 -5z"/>
<path d="M2040 960 c8 -5 20 -10 25 -10 6 0 3 5 -5 10 -8 5 -19 10 -25 10 -5
0 -3 -5 5 -10z"/>
<path d="M2087 959 c7 -7 15 -10 18 -7 3 3 -2 9 -12 12 -14 6 -15 5 -6 -5z"/>
<path d="M2272 950 c-7 -12 -7 -17 4 -17 7 0 10 5 7 10 -4 6 0 8 9 5 8 -4 15
-1 15 6 0 18 -23 15 -35 -4z"/>
<path d="M1827 947 c-3 -8 1 -14 8 -14 7 0 11 6 8 14 -3 7 -6 13 -8 13 -2 0
-5 -6 -8 -13z"/>
<path d="M1339 948 c-7 -23 -5 -37 4 -31 7 4 8 0 3 -12 -5 -15 -4 -16 9 -5 15
12 15 14 0 22 -8 5 -13 13 -10 19 4 5 4 9 1 9 -3 0 -6 -1 -7 -2z"/>
<path d="M1753 928 c-2 -18 0 -20 7 -8 12 18 13 30 2 30 -4 0 -9 -10 -9 -22z"/>
<path d="M1959 948 c-5 -12 -4 -76 1 -73 4 2 6 17 5 32 -1 15 3 31 9 35 7 5 7
8 -1 8 -7 0 -13 -1 -14 -2z"/>
<path d="M1993 935 c0 -7 8 -17 17 -23 12 -7 17 -7 17 4 0 7 -5 10 -10 7 -6
-4 -8 0 -5 9 4 8 1 15 -6 15 -7 0 -13 -6 -13 -12z"/>
<path d="M2146 938 c3 -5 10 -6 15 -3 13 9 11 12 -6 12 -8 0 -12 -4 -9 -9z"/>
<path d="M2189 930 c5 -8 6 -21 4 -27 -3 -7 0 -13 5 -13 6 0 9 8 7 18 -1 9 1
22 6 27 5 7 1 11 -11 11 -13 0 -16 -5 -11 -16z"/>
<path d="M1573 924 c0 -7 5 -10 10 -7 6 4 8 0 5 -9 -4 -8 -1 -15 6 -15 18 0
15 23 -4 35 -12 7 -17 7 -17 -4z"/>
<path d="M1678 933 c7 -3 16 -2 19 1 4 3 -2 6 -13 5 -11 0 -14 -3 -6 -6z"/>
<path d="M1875 931 c-3 -5 -2 -12 3 -15 5 -3 9 1 9 9 0 17 -3 19 -12 6z"/>
<path d="M1908 918 c10 -13 10 -17 0 -21 -9 -4 -9 -6 -1 -6 20 -2 24 16 5 30
-15 13 -16 12 -4 -3z"/>
<path d="M2133 915 c0 -7 6 -11 14 -8 7 3 13 6 13 8 0 2 -6 5 -13 8 -8 3 -14
-1 -14 -8z"/>
<path d="M241 901 c-8 -5 -9 -11 -3 -15 5 -3 12 1 16 9 6 17 6 18 -13 6z"/>
<path d="M596 895 c7 -18 6 -19 -12 -5 -18 14 -18 14 -5 -3 10 -12 17 -15 25
-7 7 7 6 14 -3 23 -10 10 -11 8 -5 -8z"/>
<path d="M1707 893 c3 -7 6 -13 8 -13 2 0 5 6 8 13 3 8 -1 14 -8 14 -7 0 -11
-6 -8 -14z"/>
<path d="M1797 897 c4 -6 0 -8 -9 -5 -8 4 -15 1 -15 -6 0 -18 23 -15 35 4 7
12 7 17 -4 17 -7 0 -10 -5 -7 -10z"/>
<path d="M2239 888 c-6 -13 -8 -20 -4 -16 5 4 13 3 20 -2 8 -7 12 -5 12 5 0 8
-5 11 -10 8 -6 -4 -8 0 -4 10 9 25 0 21 -14 -5z"/>
<path d="M2310 901 c0 -6 4 -12 8 -15 5 -3 9 1 9 9 0 8 -4 15 -9 15 -4 0 -8
-4 -8 -9z"/>
<path d="M1735 891 c-3 -5 -2 -12 3 -15 5 -3 9 1 9 9 0 17 -3 19 -12 6z"/>
<path d="M2053 885 c0 -5 12 -10 27 -10 15 0 27 5 27 10 0 6 -12 10 -27 10
-15 0 -27 -4 -27 -10z"/>
<path d="M515 852 c0 -22 6 -37 15 -40 9 -2 11 0 5 5 -12 9 -13 42 -3 59 4 6
1 11 -6 11 -8 0 -12 -13 -11 -35z"/>
<path d="M1638 878 c-9 -5 -6 -7 9 -5 12 2 25 6 28 8 8 9 -23 6 -37 -3z"/>
<path d="M1844 883 c4 -4 16 -8 28 -10 28 -4 18 6 -12 12 -12 2 -20 1 -16 -2z"/>
<path d="M615 870 c-3 -6 1 -7 9 -4 18 7 21 14 7 14 -6 0 -13 -4 -16 -10z"/>
<path d="M1999 878 c-5 -19 -8 -50 -4 -46 7 7 15 48 9 48 -2 0 -4 -1 -5 -2z"/>
<path d="M2155 860 c6 -30 16 -40 12 -12 -2 12 -6 24 -10 28 -3 4 -4 -4 -2
-16z"/>
<path d="M220 866 c0 -2 9 -6 20 -9 11 -3 18 -1 14 4 -5 9 -34 13 -34 5z"/>
<path d="M1235 853 c1 -10 -1 -23 -6 -28 -5 -7 -1 -11 11 -11 13 0 16 5 11 16
-5 8 -6 21 -4 28 3 6 0 12 -5 12 -6 0 -9 -8 -7 -17z"/>
<path d="M1309 850 c5 -8 6 -21 4 -27 -3 -7 0 -13 5 -13 6 0 9 8 7 18 -1 9 1
22 6 27 5 7 1 11 -11 11 -13 0 -16 -5 -11 -16z"/>
<path d="M1908 858 c5 -5 16 -8 23 -6 8 3 3 7 -10 11 -17 4 -21 3 -13 -5z"/>
<path d="M2066 862 c-2 -4 4 -8 14 -8 10 0 16 4 14 8 -3 4 -9 8 -14 8 -5 0
-11 -4 -14 -8z"/>
<path d="M570 847 c-20 -16 -22 -34 -5 -34 7 0 11 7 7 15 -3 9 -1 13 5 9 5 -3
10 0 10 8 0 8 -1 15 -1 15 -1 0 -8 -6 -16 -13z"/>
<path d="M1731 851 c-8 -5 -20 -7 -28 -4 -7 3 -13 1 -13 -5 0 -6 8 -9 18 -7 9
1 22 -1 27 -6 7 -5 11 0 11 12 0 10 0 19 -1 19 0 0 -6 -4 -14 -9z"/>
<path d="M1772 850 c3 -9 18 -15 41 -15 20 -1 34 2 32 5 -2 4 -17 6 -32 5 -15
-1 -32 3 -36 9 -6 7 -7 6 -5 -4z"/>
<path d="M2198 853 c7 -3 16 -2 19 1 4 3 -2 6 -13 5 -11 0 -14 -3 -6 -6z"/>
<path d="M2275 851 c-3 -5 -2 -12 3 -15 5 -3 9 1 9 9 0 17 -3 19 -12 6z"/>
<path d="M2353 845 c0 -8 4 -12 9 -9 5 3 6 10 3 15 -9 13 -12 11 -12 -6z"/>
<path d="M195 841 c-3 -5 -2 -12 3 -15 5 -3 9 1 9 9 0 17 -3 19 -12 6z"/>
<path d="M226 842 c-3 -5 1 -9 9 -9 8 0 12 4 9 9 -3 4 -7 8 -9 8 -2 0 -6 -4
-9 -8z"/>
<path d="M673 843 c4 -3 3 -11 -3 -17 -6 -8 -3 -12 10 -12 15 0 16 4 9 18 -5
10 -13 18 -16 18 -3 0 -3 -3 0 -7z"/>
<path d="M1651 834 c0 -11 3 -14 6 -6 3 7 2 16 -1 19 -3 4 -6 -2 -5 -13z"/>
<path d="M1893 835 c0 -7 7 -11 15 -7 11 4 13 1 7 -8 -5 -9 -4 -11 3 -6 16 10
15 14 -6 25 -14 7 -19 6 -19 -4z"/>
<path d="M2036 842 c-3 -5 1 -9 9 -9 8 0 12 4 9 9 -3 4 -7 8 -9 8 -2 0 -6 -4
-9 -8z"/>
<path d="M2106 842 c-3 -5 1 -9 9 -9 8 0 12 4 9 9 -3 4 -7 8 -9 8 -2 0 -6 -4
-9 -8z"/>
<path d="M2310 836 c7 -7 13 -7 20 0 6 6 3 10 -10 10 -13 0 -16 -4 -10 -10z"/>
<path d="M717 827 c-3 -8 1 -14 8 -14 7 0 11 6 8 14 -3 7 -6 13 -8 13 -2 0 -5
-6 -8 -13z"/>
<path d="M1152 827 c-8 -10 -6 -13 7 -13 11 0 17 6 14 13 -3 7 -6 13 -8 13 -1
0 -7 -6 -13 -13z"/>
<path d="M1388 823 c7 -3 16 -2 19 1 4 3 -2 6 -13 5 -11 0 -14 -3 -6 -6z"/>
<path d="M1947 813 c3 -7 6 -13 8 -13 2 0 5 6 8 13 3 8 -1 14 -8 14 -7 0 -11
-6 -8 -14z"/>
<path d="M2198 823 c7 -3 16 -2 19 1 4 3 -2 6 -13 5 -11 0 -14 -3 -6 -6z"/>
<path d="M171 806 c-9 -10 -8 -15 2 -19 8 -3 13 3 13 14 0 23 0 23 -15 5z"/>
<path d="M454 801 c0 -12 5 -17 15 -13 8 3 12 1 8 -5 -4 -6 1 -17 11 -24 15
-13 16 -12 4 3 -10 13 -10 17 0 21 11 4 10 6 0 6 -8 1 -10 6 -6 14 4 6 4 9 -1
5 -4 -4 -13 -4 -19 2 -8 6 -12 3 -12 -9z"/>
<path d="M1116 807 c3 -10 9 -15 12 -12 3 3 0 11 -7 18 -10 9 -11 8 -5 -6z"/>
<path d="M1621 804 c0 -11 3 -14 6 -6 3 7 2 16 -1 19 -3 4 -6 -2 -5 -13z"/>
<path d="M1839 808 c14 -19 32 -15 30 5 0 8 -2 8 -6 -1 -4 -10 -8 -10 -21 0
-15 12 -16 11 -3 -4z"/>
<path d="M2006 803 c-6 -14 -5 -15 5 -6 7 7 10 15 7 18 -3 3 -9 -2 -12 -12z"/>
<path d="M2035 809 c-4 -6 -5 -12 -2 -15 2 -3 7 2 10 11 7 17 1 20 -8 4z"/>
<path d="M2115 796 c0 -13 5 -23 11 -23 6 0 9 9 6 19 -7 27 -17 29 -17 4z"/>
<path d="M2141 804 c0 -11 3 -14 6 -6 3 7 2 16 -1 19 -3 4 -6 -2 -5 -13z"/>
<path d="M2308 813 c6 -2 18 -2 25 0 6 3 1 5 -13 5 -14 0 -19 -2 -12 -5z"/>
<path d="M600 800 c-8 -5 -10 -10 -5 -10 6 0 17 5 25 10 8 5 11 10 5 10 -5 0
-17 -5 -25 -10z"/>
<path d="M1380 795 c-11 -13 -10 -14 5 -9 11 5 16 4 12 -3 -3 -5 0 -10 8 -10
12 0 12 3 3 16 -7 9 -13 17 -14 19 -1 1 -7 -4 -14 -13z"/>
<path d="M1670 800 c0 -5 5 -10 11 -10 5 0 7 5 4 10 -3 6 -8 10 -11 10 -2 0
-4 -4 -4 -10z"/>
<path d="M1753 803 c4 -3 3 -11 -3 -17 -6 -8 -3 -12 9 -12 12 0 17 6 13 18 -2
10 -9 18 -15 18 -6 0 -7 -3 -4 -7z"/>
<path d="M2093 795 c0 -8 4 -12 9 -9 5 3 6 10 3 15 -9 13 -12 11 -12 -6z"/>
<path d="M2360 800 c-9 -6 -10 -10 -3 -10 6 0 15 5 18 10 8 12 4 12 -15 0z"/>
<path d="M1307 787 c-3 -8 1 -14 8 -14 7 0 11 6 8 14 -3 7 -6 13 -8 13 -2 0
-5 -6 -8 -13z"/>
<path d="M144 769 c0 -13 3 -15 13 -7 7 6 13 12 13 13 0 2 -6 5 -13 8 -7 3
-13 -3 -13 -14z"/>
<path d="M669 775 c5 -5 7 -18 6 -27 -2 -10 1 -18 7 -18 5 0 8 6 5 13 -2 6 -1
19 4 27 5 11 2 16 -11 16 -12 0 -16 -4 -11 -11z"/>
<path d="M716 778 c3 -5 10 -6 15 -3 13 9 11 12 -6 12 -8 0 -12 -4 -9 -9z"/>
<path d="M925 780 c3 -5 -3 -10 -14 -10 -13 0 -21 -7 -22 -17 -1 -10 -2 -29
-3 -43 0 -14 -5 -31 -10 -39 -6 -10 -5 -12 2 -7 15 9 12 -45 -3 -57 -7 -6 -6
-10 3 -14 6 -2 12 -9 12 -14 0 -6 -6 -7 -12 -3 -10 6 -10 5 -1 -8 7 -8 10 -18
6 -21 -3 -4 -1 -7 5 -7 7 0 12 -6 12 -13 0 -9 11 -13 33 -12 17 2 38 -3 46 -9
11 -8 13 -8 8 1 -9 15 3 44 15 37 6 -4 6 1 -1 13 -12 24 -11 63 3 82 8 11 8
13 -1 7 -7 -4 -13 -3 -13 3 0 5 8 12 18 14 14 4 15 5 1 6 -12 1 -17 12 -17 42
-1 23 -4 45 -9 48 -16 14 -64 31 -58 21z"/>
<path d="M1075 773 c1 -10 -1 -23 -6 -28 -5 -7 -1 -11 11 -11 13 0 16 5 11 16
-5 8 -6 21 -4 28 3 6 0 12 -5 12 -6 0 -9 -8 -7 -17z"/>
<path d="M1159 788 c-5 -12 -4 -76 1 -73 4 2 6 17 5 32 -1 15 3 31 9 35 7 5 7
8 -1 8 -7 0 -13 -1 -14 -2z"/>
<path d="M1193 775 c0 -7 8 -17 17 -23 12 -7 17 -7 17 4 0 7 -5 10 -10 7 -6
-4 -8 0 -5 9 4 8 1 15 -6 15 -7 0 -13 -6 -13 -12z"/>
<path d="M1953 778 c2 -7 1 -20 -4 -28 -5 -11 -2 -16 11 -16 12 0 16 4 11 11
-5 5 -7 18 -6 28 2 9 -1 17 -7 17 -5 0 -8 -6 -5 -12z"/>
<path d="M2193 778 c2 -7 1 -20 -4 -28 -5 -11 -2 -16 11 -16 12 0 16 4 11 11
-5 5 -7 18 -6 28 2 9 -1 17 -7 17 -5 0 -8 -6 -5 -12z"/>
<path d="M2266 783 c5 -4 10 -25 9 -45 -1 -20 2 -35 5 -33 13 8 4 79 -10 83
-10 2 -11 0 -4 -5z"/>
<path d="M2386 778 c3 -5 10 -6 15 -3 13 9 11 12 -6 12 -8 0 -12 -4 -9 -9z"/>
<path d="M213 765 c0 -8 5 -11 10 -8 6 4 8 0 4 -10 -4 -10 -2 -14 7 -11 7 3
13 11 13 19 0 8 -3 13 -5 10 -3 -3 -10 0 -17 5 -8 7 -12 5 -12 -5z"/>
<path d="M403 761 c-21 -18 -22 -19 -3 -24 14 -3 17 -1 13 11 -4 9 -2 13 4 9
5 -3 10 0 10 8 0 8 -1 15 -1 15 -1 -1 -11 -9 -23 -19z"/>
<path d="M853 765 c0 -7 6 -11 14 -8 7 3 13 6 13 8 0 2 -6 5 -13 8 -8 3 -14
-1 -14 -8z"/>
<path d="M998 773 c7 -3 16 -2 19 1 4 3 -2 6 -13 5 -11 0 -14 -3 -6 -6z"/>
<path d="M1854 760 c0 -12 4 -16 11 -11 5 5 18 7 28 6 9 -2 17 1 17 7 0 5 -6
8 -12 5 -7 -2 -20 -1 -28 4 -11 5 -16 2 -16 -11z"/>
<path d="M2028 773 c7 -3 16 -2 19 1 4 3 -2 6 -13 5 -11 0 -14 -3 -6 -6z"/>
<path d="M310 760 c0 -5 5 -10 11 -10 5 0 7 5 4 10 -3 6 -8 10 -11 10 -2 0 -4
-4 -4 -10z"/>
<path d="M513 755 c0 -8 4 -12 9 -9 5 3 6 10 3 15 -9 13 -12 11 -12 -6z"/>
<path d="M613 755 c0 -7 6 -11 14 -8 7 3 13 6 13 8 0 2 -6 5 -13 8 -8 3 -14
-1 -14 -8z"/>
<path d="M732 761 c-11 -7 -11 -9 0 -14 9 -3 15 1 15 9 0 8 -1 14 -1 14 -1 0
-7 -4 -14 -9z"/>
<path d="M1353 752 c2 -12 6 -24 10 -28 3 -4 4 4 2 16 -6 30 -16 40 -12 12z"/>
<path d="M1605 760 c-2 -4 8 -6 23 -5 15 1 31 -3 35 -9 6 -7 7 -6 5 4 -4 14
-55 23 -63 10z"/>
<path d="M1716 762 c-3 -5 1 -9 9 -9 8 0 12 4 9 9 -3 4 -7 8 -9 8 -2 0 -6 -4
-9 -8z"/>
<path d="M2070 760 c0 -5 5 -10 10 -10 6 0 10 5 10 10 0 6 -4 10 -10 10 -5 0
-10 -4 -10 -10z"/>
<path d="M2373 754 c0 -7 7 -10 15 -6 9 3 13 1 9 -5 -3 -5 0 -10 7 -10 8 0 12
7 8 15 -4 11 -1 13 9 7 8 -4 11 -4 6 0 -11 13 -54 12 -54 -1z"/>
<path d="M1514 746 c1 -8 5 -18 8 -22 4 -3 5 1 4 10 -1 8 -5 18 -8 22 -4 3 -5
-1 -4 -10z"/>
<path d="M268 743 c7 -3 16 -2 19 1 4 3 -2 6 -13 5 -11 0 -14 -3 -6 -6z"/>
<path d="M1005 739 c-4 -6 -5 -12 -2 -15 2 -3 7 2 10 11 7 17 1 20 -8 4z"/>
<path d="M1278 743 c7 -3 16 -2 19 1 4 3 -2 6 -13 5 -11 0 -14 -3 -6 -6z"/>
<path d="M1433 731 c10 -12 9 -14 -4 -9 -9 4 -16 1 -16 -8 0 -9 5 -10 15 -5
20 11 24 38 6 38 -11 0 -11 -3 -1 -16z"/>
<path d="M1468 743 c7 -3 16 -2 19 1 4 3 -2 6 -13 5 -11 0 -14 -3 -6 -6z"/>
<path d="M1788 736 c11 -17 9 -70 -3 -79 -6 -5 -4 -7 5 -4 10 2 15 15 14 36 0
20 4 30 11 27 6 -2 12 2 12 9 0 8 -7 11 -15 7 -9 -3 -13 -1 -9 5 3 5 0 10 -8
10 -8 0 -11 -5 -7 -11z"/>
<path d="M2030 746 c0 -2 7 -7 16 -10 8 -3 12 -2 9 4 -6 10 -25 14 -25 6z"/>
<path d="M2148 743 c6 -2 9 -10 6 -15 -4 -7 -2 -8 5 -4 13 9 5 26 -12 25 -9 0
-8 -2 1 -6z"/>
<path d="M537 719 c4 -13 8 -18 11 -10 2 7 -1 18 -6 23 -8 8 -9 4 -5 -13z"/>
<path d="M571 731 c-8 -5 -9 -11 -3 -15 5 -3 12 1 16 9 6 17 6 18 -13 6z"/>
<path d="M771 724 c0 -11 3 -14 6 -6 3 7 2 16 -1 19 -3 4 -6 -2 -5 -13z"/>
<path d="M1253 726 c0 -6 10 -11 23 -11 25 0 23 10 -4 17 -10 3 -19 0 -19 -6z"/>
<path d="M1690 726 c0 -8 4 -17 9 -20 5 -4 7 3 4 14 -6 23 -13 26 -13 6z"/>
<path d="M1715 731 c-3 -5 -2 -12 3 -15 5 -3 9 1 9 9 0 17 -3 19 -12 6z"/>
<path d="M2340 731 c0 -7 -5 -9 -12 -5 -7 5 -8 3 -3 -5 5 -9 10 -10 18 -2 6 6
8 14 4 18 -4 3 -7 1 -7 -6z"/>
<path d="M170 720 c0 -5 5 -10 10 -10 6 0 10 5 10 10 0 6 -4 10 -10 10 -5 0
-10 -4 -10 -10z"/>
<path d="M450 720 c0 -5 5 -10 10 -10 6 0 10 5 10 10 0 6 -4 10 -10 10 -5 0
-10 -4 -10 -10z"/>
<path d="M513 715 c0 -8 4 -12 9 -9 5 3 6 10 3 15 -9 13 -12 11 -12 -6z"/>
<path d="M847 719 c7 -7 15 -10 18 -7 3 3 -2 9 -12 12 -14 6 -15 5 -6 -5z"/>
<path d="M1121 716 c-9 -10 -9 -16 -1 -21 6 -4 14 -4 17 -1 4 3 1 6 -7 6 -10
0 -10 3 0 15 7 8 10 15 7 15 -2 0 -10 -6 -16 -14z"/>
<path d="M1315 693 c0 -23 6 -38 15 -41 10 -2 11 -1 4 5 -6 4 -10 21 -9 36 1
15 -1 30 -5 32 -3 2 -6 -12 -5 -32z"/>
<path d="M1573 715 c0 -7 7 -11 15 -7 11 4 13 1 7 -8 -5 -9 -4 -11 3 -6 16 10
15 14 -6 25 -14 7 -19 6 -19 -4z"/>
<path d="M1657 716 c-4 -10 -1 -13 8 -9 8 3 12 9 9 14 -7 12 -11 11 -17 -5z"/>
<path d="M2220 720 c-9 -6 -10 -10 -3 -10 6 0 15 5 18 10 8 12 4 12 -15 0z"/>
<path d="M2301 714 c0 -11 3 -14 6 -6 3 7 2 16 -1 19 -3 4 -6 -2 -5 -13z"/>
<path d="M719 718 c-5 -19 -8 -50 -4 -46 7 7 15 48 9 48 -2 0 -4 -1 -5 -2z"/>
<path d="M1199 718 c-5 -19 -8 -50 -4 -46 7 7 15 48 9 48 -2 0 -4 -1 -5 -2z"/>
<path d="M396 695 c3 -7 -7 -11 -27 -11 -21 1 -34 -4 -36 -14 -3 -9 -1 -11 4
-5 9 12 62 14 79 3 6 -4 11 -1 11 7 0 8 -5 11 -10 8 -6 -4 -8 0 -5 9 4 8 1 15
-7 15 -7 0 -11 -6 -9 -12z"/>
<path d="M796 695 c3 -7 -7 -11 -27 -11 -21 1 -34 -4 -36 -14 -3 -9 -1 -11 4
-5 9 12 62 14 79 3 6 -4 11 -1 11 7 0 8 -5 11 -10 8 -6 -4 -8 0 -5 9 4 8 1 15
-7 15 -7 0 -11 -6 -9 -12z"/>
<path d="M1069 695 c5 -5 7 -18 6 -27 -2 -10 1 -18 7 -18 5 0 8 6 5 13 -2 6
-1 19 4 27 5 11 2 16 -11 16 -12 0 -16 -4 -11 -11z"/>
<path d="M1266 702 c-3 -5 1 -9 9 -9 8 0 12 4 9 9 -3 4 -7 8 -9 8 -2 0 -6 -4
-9 -8z"/>
<path d="M1475 693 c1 -10 -1 -23 -6 -28 -5 -7 -1 -11 11 -11 13 0 16 5 11 16
-5 8 -6 21 -4 28 3 6 0 12 -5 12 -6 0 -9 -8 -7 -17z"/>
<path d="M1988 692 c3 -9 1 -13 -5 -9 -5 3 -10 0 -10 -8 0 -8 5 -11 11 -7 17
11 70 9 79 -3 5 -6 7 -4 4 5 -2 10 -15 15 -36 14 -20 0 -30 4 -27 11 2 6 -2
12 -9 12 -8 0 -11 -7 -7 -15z"/>
<path d="M2156 695 c3 -7 -7 -11 -27 -11 -21 1 -34 -4 -36 -14 -3 -9 -1 -11 4
-5 9 12 62 14 79 3 6 -4 11 -1 11 7 0 8 -5 11 -10 8 -6 -4 -8 0 -5 9 4 8 1 15
-7 15 -7 0 -11 -6 -9 -12z"/>
<path d="M295 691 c-3 -6 -14 -8 -25 -6 -11 2 -20 -1 -20 -6 0 -6 6 -9 13 -6
6 2 19 1 27 -4 12 -5 16 -2 16 12 0 21 -2 23 -11 10z"/>
<path d="M574 680 c0 -12 4 -16 11 -11 5 5 18 7 28 6 9 -2 17 1 17 7 0 5 -6 8
-12 5 -7 -2 -20 -1 -28 4 -11 5 -16 2 -16 -11z"/>
<path d="M668 693 c7 -3 16 -2 19 1 4 3 -2 6 -13 5 -11 0 -14 -3 -6 -6z"/>
<path d="M1370 687 c-20 -16 -22 -34 -5 -34 7 0 11 7 7 15 -3 9 -1 13 5 9 5
-3 10 0 10 8 0 8 -1 15 -1 15 -1 0 -8 -6 -16 -13z"/>
<path d="M1532 691 c-11 -7 -11 -9 0 -14 9 -3 15 1 15 9 0 8 -1 14 -1 14 -1 0
-7 -4 -14 -9z"/>
<path d="M1610 685 c-10 -13 -11 -18 -1 -28 10 -9 11 -8 5 7 -5 12 -4 17 3 13
5 -3 10 0 10 8 0 19 -2 19 -17 0z"/>
<path d="M1715 691 c-3 -5 -2 -12 3 -15 5 -3 9 1 9 9 0 17 -3 19 -12 6z"/>
<path d="M1891 684 c0 -11 3 -14 6 -6 3 7 2 16 -1 19 -3 4 -6 -2 -5 -13z"/>
<path d="M2334 680 c0 -12 4 -16 11 -11 5 5 18 7 28 6 9 -2 17 1 17 7 0 5 -6
8 -12 5 -7 -2 -20 -1 -28 4 -11 5 -16 2 -16 -11z"/>
<path d="M213 675 c0 -7 6 -11 14 -8 7 3 13 6 13 8 0 2 -6 5 -13 8 -8 3 -14
-1 -14 -8z"/>
<path d="M506 678 c3 -5 10 -6 15 -3 13 9 11 12 -6 12 -8 0 -12 -4 -9 -9z"/>
<path d="M1236 682 c-3 -5 1 -9 9 -9 8 0 12 4 9 9 -3 4 -7 8 -9 8 -2 0 -6 -4
-9 -8z"/>
<path d="M1747 679 c7 -7 15 -10 18 -7 3 3 -2 9 -12 12 -14 6 -15 5 -6 -5z"/>
<path d="M2266 678 c3 -5 10 -6 15 -3 13 9 11 12 -6 12 -8 0 -12 -4 -9 -9z"/>
<path d="M2421 674 c0 -11 3 -14 6 -6 3 7 2 16 -1 19 -3 4 -6 -2 -5 -13z"/>
<path d="M134 658 c-3 -5 0 -7 8 -6 7 2 12 -2 11 -8 -3 -15 25 -13 31 2 3 9
-1 11 -11 7 -10 -4 -14 -2 -10 4 3 5 -1 10 -9 10 -8 0 -17 -4 -20 -9z"/>
<path d="M477 657 c4 -6 0 -8 -9 -5 -8 4 -15 1 -15 -7 0 -8 7 -11 15 -7 11 4
13 1 7 -9 -5 -8 -5 -11 1 -6 5 5 9 12 9 15 0 4 3 12 7 18 4 6 1 11 -7 11 -8 0
-11 -5 -8 -10z"/>
<path d="M668 663 c7 -3 16 -2 19 1 4 3 -2 6 -13 5 -11 0 -14 -3 -6 -6z"/>
<path d="M1151 648 c8 -15 13 -17 25 -7 8 6 14 14 14 16 0 3 -8 -1 -17 -8 -14
-12 -16 -12 -11 2 4 9 1 16 -7 16 -11 0 -11 -5 -4 -19z"/>
<path d="M1516 662 c-3 -5 1 -9 9 -9 8 0 12 4 9 9 -3 4 -7 8 -9 8 -2 0 -6 -4
-9 -8z"/>
<path d="M1905 660 c-3 -6 1 -7 9 -4 18 7 21 14 7 14 -6 0 -13 -4 -16 -10z"/>
<path d="M2237 657 c4 -6 0 -8 -8 -5 -10 4 -15 -1 -15 -13 0 -14 3 -16 15 -6
12 10 14 9 9 -4 -4 -9 -1 -16 7 -16 10 0 11 5 5 17 -6 10 -5 21 1 27 6 6 5 10
-5 10 -8 0 -12 -5 -9 -10z"/>
<path d="M853 645 c0 -7 6 -11 14 -8 7 3 13 6 13 8 0 2 -6 5 -13 8 -8 3 -14
-1 -14 -8z"/>
<path d="M1211 644 c0 -11 3 -14 6 -6 3 7 2 16 -1 19 -3 4 -6 -2 -5 -13z"/>
<path d="M1237 653 c-10 -21 -1 -77 13 -80 9 -3 11 -1 4 4 -5 4 -10 25 -9 46
1 37 0 44 -8 30z"/>
<path d="M1748 653 c7 -3 16 -2 19 1 4 3 -2 6 -13 5 -11 0 -14 -3 -6 -6z"/>
<path d="M1932 651 c-11 -6 -10 -10 0 -19 11 -8 14 -7 14 9 0 10 0 19 -1 19 0
0 -6 -4 -13 -9z"/>
<path d="M295 639 c-4 -6 -4 -13 -1 -16 3 -4 6 -1 6 7 0 10 4 10 18 -1 15 -13
16 -12 3 4 -16 20 -18 20 -26 6z"/>
<path d="M336 638 c3 -5 10 -6 15 -3 13 9 11 12 -6 12 -8 0 -12 -4 -9 -9z"/>
<path d="M501 634 c0 -11 3 -14 6 -6 3 7 2 16 -1 19 -3 4 -6 -2 -5 -13z"/>
<path d="M660 635 c-11 -13 -10 -14 5 -9 11 5 16 4 12 -3 -3 -5 0 -10 8 -10
12 0 12 3 3 16 -7 9 -13 17 -14 19 -1 1 -7 -4 -14 -13z"/>
<path d="M754 620 c2 -19 -2 -39 -8 -43 -7 -6 -6 -7 4 -5 15 5 22 49 9 70 -4
7 -7 -3 -5 -22z"/>
<path d="M1284 643 c4 -4 16 -8 28 -10 28 -4 18 6 -12 12 -12 2 -20 1 -16 -2z"/>
<path d="M1410 645 c0 -7 30 -13 34 -7 3 4 -4 9 -15 9 -10 1 -19 0 -19 -2z"/>
<path d="M1640 640 c-8 -5 -10 -10 -5 -10 6 0 17 5 25 10 8 5 11 10 5 10 -5 0
-17 -5 -25 -10z"/>
<path d="M1810 638 c0 -7 68 -3 76 4 2 3 -14 5 -36 4 -22 0 -40 -4 -40 -8z"/>
<path d="M2036 633 c-6 -14 -5 -15 5 -6 7 7 10 15 7 18 -3 3 -9 -2 -12 -12z"/>
<path d="M2061 634 c0 -11 3 -14 6 -6 3 7 2 16 -1 19 -3 4 -6 -2 -5 -13z"/>
<path d="M2091 634 c0 -11 3 -14 6 -6 3 7 2 16 -1 19 -3 4 -6 -2 -5 -13z"/>
<path d="M2110 641 c0 -6 4 -13 10 -16 6 -3 7 1 4 9 -7 18 -14 21 -14 7z"/>
<path d="M2313 628 c-2 -18 0 -20 7 -8 12 18 13 30 2 30 -4 0 -9 -10 -9 -22z"/>
<path d="M1067 627 c-3 -8 1 -14 8 -14 7 0 11 6 8 14 -3 7 -6 13 -8 13 -2 0
-5 -6 -8 -13z"/>
<path d="M1346 618 c3 -5 10 -6 15 -3 13 9 11 12 -6 12 -8 0 -12 -4 -9 -9z"/>
<path d="M1389 610 c5 -8 6 -21 4 -27 -3 -7 0 -13 5 -13 6 0 9 8 7 18 -1 9 1
22 6 27 5 7 1 11 -11 11 -13 0 -16 -5 -11 -16z"/>
<path d="M1444 619 c-3 -6 0 -17 8 -25 13 -13 15 -13 15 0 0 8 -5 12 -10 9 -6
-4 -8 0 -4 10 7 19 2 23 -9 6z"/>
<path d="M1666 618 c3 -5 10 -6 15 -3 13 9 11 12 -6 12 -8 0 -12 -4 -9 -9z"/>
<path d="M1709 610 c5 -8 6 -21 4 -27 -3 -7 0 -13 5 -13 6 0 9 8 7 18 -1 9 1
22 6 27 5 7 1 11 -11 11 -13 0 -16 -5 -11 -16z"/>
<path d="M1764 619 c-3 -6 0 -17 8 -25 13 -13 15 -13 15 0 0 8 -5 12 -10 9 -6
-4 -8 0 -4 10 7 19 2 23 -9 6z"/>
<path d="M1908 623 c10 -4 10 -8 0 -21 -12 -15 -11 -16 4 -3 19 14 15 32 -5
30 -8 0 -8 -2 1 -6z"/>
<path d="M174 600 c0 -12 4 -16 11 -11 5 5 18 7 28 6 9 -2 17 1 17 7 0 5 -6 8
-12 5 -7 -2 -20 -1 -28 4 -11 5 -16 2 -16 -11z"/>
<path d="M252 611 c-11 -7 -11 -9 0 -14 9 -3 15 1 15 9 0 8 -1 14 -1 14 -1 0
-7 -4 -14 -9z"/>
<path d="M533 605 c0 -7 6 -11 14 -8 7 3 13 6 13 8 0 2 -6 5 -13 8 -8 3 -14
-1 -14 -8z"/>
<path d="M611 611 c-8 -5 -20 -7 -28 -4 -7 3 -13 1 -13 -5 0 -6 8 -9 18 -7 9
1 22 -1 27 -6 7 -5 11 0 11 12 0 10 0 19 -1 19 0 0 -6 -4 -14 -9z"/>
<path d="M828 613 c7 -3 16 -2 19 1 4 3 -2 6 -13 5 -11 0 -14 -3 -6 -6z"/>
<path d="M1188 613 c7 -3 16 -2 19 1 4 3 -2 6 -13 5 -11 0 -14 -3 -6 -6z"/>
<path d="M1955 611 c-3 -5 -2 -12 3 -15 5 -3 9 1 9 9 0 17 -3 19 -12 6z"/>
<path d="M2193 605 c0 -8 4 -12 9 -9 5 3 6 10 3 15 -9 13 -12 11 -12 -6z"/>
<path d="M2334 600 c0 -13 5 -16 16 -11 8 5 21 6 28 4 6 -3 12 0 12 5 0 6 -8
9 -17 7 -10 -1 -23 1 -28 6 -7 5 -11 1 -11 -11z"/>
<path d="M315 600 c2 -4 17 -6 32 -5 15 1 32 -3 36 -9 6 -7 7 -6 5 4 -3 9 -18
15 -41 15 -20 1 -34 -2 -32 -5z"/>
<path d="M413 597 c-3 -4 -2 -11 1 -14 3 -4 6 -2 6 4 0 6 14 9 30 8 17 -1 32
0 34 4 3 4 -11 7 -30 7 -20 0 -38 -4 -41 -9z"/>
<path d="M1110 600 c0 -5 5 -10 10 -10 6 0 10 5 10 10 0 6 -4 10 -10 10 -5 0
-10 -4 -10 -10z"/>
<path d="M1333 595 c0 -7 6 -11 14 -8 7 3 13 6 13 8 0 2 -6 5 -13 8 -8 3 -14
-1 -14 -8z"/>
<path d="M1555 601 c-3 -5 -2 -12 3 -15 5 -3 9 1 9 9 0 17 -3 19 -12 6z"/>
<path d="M1586 602 c-3 -5 1 -9 9 -9 8 0 12 4 9 9 -3 4 -7 8 -9 8 -2 0 -6 -4
-9 -8z"/>
<path d="M1653 595 c0 -7 6 -11 14 -8 7 3 13 6 13 8 0 2 -6 5 -13 8 -8 3 -14
-1 -14 -8z"/>
<path d="M1875 601 c-3 -5 -2 -12 3 -15 5 -3 9 1 9 9 0 17 -3 19 -12 6z"/>
<path d="M1986 598 c3 -5 10 -6 15 -3 13 9 11 12 -6 12 -8 0 -12 -4 -9 -9z"/>
<path d="M2026 598 c3 -5 10 -6 15 -3 13 9 11 12 -6 12 -8 0 -12 -4 -9 -9z"/>
<path d="M2116 598 c3 -5 10 -6 15 -3 13 9 11 12 -6 12 -8 0 -12 -4 -9 -9z"/>
<path d="M2156 598 c3 -5 10 -6 15 -3 13 9 11 12 -6 12 -8 0 -12 -4 -9 -9z"/>
<path d="M1000 591 c0 -6 4 -13 10 -16 6 -3 7 1 4 9 -7 18 -14 21 -14 7z"/>
<path d="M639 583 c-6 -53 -7 -74 -2 -70 6 7 14 77 7 77 -2 0 -4 -3 -5 -7z"/>
<path d="M707 575 c3 -8 9 -12 14 -9 12 7 11 11 -5 17 -10 4 -13 1 -9 -8z"/>
<path d="M828 583 c7 -3 16 -2 19 1 4 3 -2 6 -13 5 -11 0 -14 -3 -6 -6z"/>
<path d="M1035 581 c-3 -5 0 -13 6 -17 7 -4 9 -3 5 4 -3 5 0 13 6 15 9 4 10 6
1 6 -6 1 -14 -3 -18 -8z"/>
<path d="M1157 573 c3 -7 6 -13 8 -13 2 0 5 6 8 13 3 8 -1 14 -8 14 -7 0 -11
-6 -8 -14z"/>
<path d="M1995 580 c-16 -7 -17 -9 -3 -9 9 -1 20 4 23 9 7 11 7 11 -20 0z"/>
<path d="M2148 578 c5 -5 16 -8 23 -6 8 3 3 7 -10 11 -17 4 -21 3 -13 -5z"/>
<path d="M2268 576 c9 -15 10 -48 1 -66 -5 -11 -2 -16 11 -16 10 0 16 5 12 11
-12 18 -8 50 8 63 13 10 12 11 -4 5 -12 -4 -17 -3 -13 4 3 5 0 10 -8 10 -8 0
-11 -5 -7 -11z"/>
<path d="M353 565 c0 -8 4 -12 9 -9 5 3 6 10 3 15 -9 13 -12 11 -12 -6z"/>
<path d="M1133 565 c0 -8 4 -12 9 -9 5 3 6 10 3 15 -9 13 -12 11 -12 -6z"/>
<path d="M1301 564 c0 -11 3 -14 6 -6 3 7 2 16 -1 19 -3 4 -6 -2 -5 -13z"/>
<path d="M1497 565 c3 -8 9 -12 14 -9 12 7 11 11 -5 17 -10 4 -13 1 -9 -8z"/>
<path d="M1533 565 c-3 -9 -3 -18 -1 -21 3 -3 8 4 11 16 6 23 -1 27 -10 5z"/>
<path d="M1621 564 c0 -11 3 -14 6 -6 3 7 2 16 -1 19 -3 4 -6 -2 -5 -13z"/>
<path d="M1817 565 c3 -8 9 -12 14 -9 12 7 11 11 -5 17 -10 4 -13 1 -9 -8z"/>
<path d="M1853 565 c-3 -9 -3 -18 -1 -21 3 -3 8 4 11 16 6 23 -1 27 -10 5z"/>
<path d="M1916 567 c3 -10 9 -15 12 -12 3 3 0 11 -7 18 -10 9 -11 8 -5 -6z"/>
<path d="M272 564 c3 -3 12 -6 20 -8 7 -1 20 -5 28 -10 12 -7 13 -6 3 4 -7 8
-23 15 -35 17 -12 2 -19 1 -16 -3z"/>
<path d="M376 553 c-6 -14 -5 -15 5 -6 7 7 10 15 7 18 -3 3 -9 -2 -12 -12z"/>
<path d="M406 561 c-3 -5 1 -11 9 -14 9 -4 12 -1 8 9 -6 16 -10 17 -17 5z"/>
<path d="M790 559 c0 -5 5 -7 10 -4 6 3 10 8 10 11 0 2 -4 4 -10 4 -5 0 -10
-5 -10 -11z"/>
<path d="M1204 563 c4 -4 16 -8 28 -10 28 -4 18 6 -12 12 -12 2 -20 1 -16 -2z"/>
<path d="M1555 561 c-3 -5 -2 -12 3 -15 5 -3 9 1 9 9 0 17 -3 19 -12 6z"/>
<path d="M1875 561 c-3 -5 -2 -12 3 -15 5 -3 9 1 9 9 0 17 -3 19 -12 6z"/>
<path d="M2326 562 c-3 -5 1 -9 9 -9 8 0 12 4 9 9 -3 4 -7 8 -9 8 -2 0 -6 -4
-9 -8z"/>
<path d="M234 536 c0 -13 6 -23 13 -23 9 0 10 4 2 13 -7 8 -6 13 3 16 8 3 8 6
-3 10 -11 4 -15 -1 -15 -16z"/>
<path d="M1355 540 c6 -30 16 -40 12 -12 -2 12 -6 24 -10 28 -3 4 -4 -4 -2
-16z"/>
<path d="M1675 540 c6 -30 16 -40 12 -12 -2 12 -6 24 -10 28 -3 4 -4 -4 -2
-16z"/>
<path d="M1996 551 c-3 -5 1 -11 9 -14 9 -4 12 -1 8 9 -6 16 -10 17 -17 5z"/>
<path d="M2147 546 c-4 -10 -1 -13 8 -9 8 3 12 9 9 14 -7 12 -11 11 -17 -5z"/>
<path d="M509 530 c5 -8 6 -21 4 -27 -3 -7 0 -13 5 -13 6 0 9 8 7 18 -1 9 1
22 6 27 5 7 1 11 -11 11 -13 0 -16 -5 -11 -16z"/>
<path d="M706 541 c-4 -5 3 -7 14 -4 23 6 26 13 6 13 -8 0 -17 -4 -20 -9z"/>
<path d="M835 533 c1 -10 -1 -23 -6 -28 -5 -7 -1 -11 11 -11 13 0 16 5 11 16
-5 8 -6 21 -4 28 3 6 0 12 -5 12 -6 0 -9 -8 -7 -17z"/>
<path d="M1028 532 c3 -9 1 -13 -5 -9 -5 3 -10 0 -10 -8 0 -8 5 -11 11 -7 17
11 70 9 79 -3 5 -6 7 -4 4 5 -2 10 -15 15 -36 14 -20 0 -30 4 -27 11 2 6 -2
12 -9 12 -8 0 -11 -7 -7 -15z"/>
<path d="M1959 548 c-5 -12 -4 -76 1 -73 4 2 6 17 5 32 -1 15 3 31 9 35 7 5 7
8 -1 8 -7 0 -13 -1 -14 -2z"/>
<path d="M2070 540 c0 -5 5 -10 10 -10 6 0 10 5 10 10 0 6 -4 10 -10 10 -5 0
-10 -4 -10 -10z"/>
<path d="M2186 543 c6 -4 10 -21 9 -36 -1 -15 1 -30 5 -32 3 -2 6 12 5 32 0
23 -6 38 -15 41 -10 2 -11 1 -4 -5z"/>
<path d="M198 533 c7 -3 16 -2 19 1 4 3 -2 6 -13 5 -11 0 -14 -3 -6 -6z"/>
<path d="M353 525 c0 -8 4 -12 9 -9 5 3 6 10 3 15 -9 13 -12 11 -12 -6z"/>
<path d="M453 526 c0 -8 5 -12 10 -9 7 4 8 -1 3 -13 -6 -15 -5 -17 5 -6 11 10
10 15 -2 28 -14 13 -16 13 -16 0z"/>
<path d="M588 533 c7 -3 16 -2 19 1 4 3 -2 6 -13 5 -11 0 -14 -3 -6 -6z"/>
<path d="M1134 520 c0 -12 4 -16 11 -11 5 5 18 7 28 6 9 -2 17 1 17 7 0 5 -6
8 -12 5 -7 -2 -20 -1 -28 4 -11 5 -16 2 -16 -11z"/>
<path d="M1398 533 c7 -3 16 -2 19 1 4 3 -2 6 -13 5 -11 0 -14 -3 -6 -6z"/>
<path d="M1437 528 c16 -19 65 -17 71 2 2 9 0 11 -5 5 -10 -13 -43 -13 -63 0
-12 7 -13 6 -3 -7z"/>
<path d="M1718 533 c7 -3 16 -2 19 1 4 3 -2 6 -13 5 -11 0 -14 -3 -6 -6z"/>
<path d="M1757 528 c16 -19 65 -17 71 2 2 9 0 11 -5 5 -10 -13 -43 -13 -63 0
-12 7 -13 6 -3 -7z"/>
<path d="M2341 524 c0 -11 3 -14 6 -6 3 7 2 16 -1 19 -3 4 -6 -2 -5 -13z"/>
<path d="M2373 525 c0 -7 6 -11 14 -8 7 3 13 6 13 8 0 2 -6 5 -13 8 -8 3 -14
-1 -14 -8z"/>
<path d="M273 515 c0 -8 4 -12 9 -9 5 3 6 10 3 15 -9 13 -12 11 -12 -6z"/>
<path d="M321 516 c-9 -10 -9 -16 -1 -21 6 -4 14 -4 17 -1 4 3 1 6 -7 6 -10 0
-10 3 0 15 7 8 10 15 7 15 -2 0 -10 -6 -16 -14z"/>
<path d="M676 522 c-3 -5 1 -9 9 -9 8 0 12 4 9 9 -3 4 -7 8 -9 8 -2 0 -6 -4
-9 -8z"/>
<path d="M716 522 c-3 -5 1 -9 9 -9 8 0 12 4 9 9 -3 4 -7 8 -9 8 -2 0 -6 -4
-9 -8z"/>
<path d="M753 515 c0 -8 4 -12 9 -9 5 3 6 10 3 15 -9 13 -12 11 -12 -6z"/>
<path d="M1221 514 c0 -11 3 -14 6 -6 3 7 2 16 -1 19 -3 4 -6 -2 -5 -13z"/>
<path d="M1251 514 c0 -11 3 -14 6 -6 3 7 2 16 -1 19 -3 4 -6 -2 -5 -13z"/>
<path d="M1278 519 c-7 -4 3 -7 22 -5 19 2 39 -2 43 -8 6 -7 7 -6 5 4 -5 15
-49 22 -70 9z"/>
<path d="M1556 518 c3 -5 10 -6 15 -3 13 9 11 12 -6 12 -8 0 -12 -4 -9 -9z"/>
<path d="M1595 520 c2 -4 17 -6 32 -5 15 1 32 -3 36 -9 6 -7 7 -6 5 4 -3 9
-18 15 -41 15 -20 1 -34 -2 -32 -5z"/>
<path d="M1876 518 c3 -5 10 -6 15 -3 13 9 11 12 -6 12 -8 0 -12 -4 -9 -9z"/>
<path d="M193 489 c-2 -23 3 -25 10 -4 4 8 3 16 -1 19 -4 3 -9 -4 -9 -15z"/>
<path d="M588 503 c7 -3 16 -2 19 1 4 3 -2 6 -13 5 -11 0 -14 -3 -6 -6z"/>
<path d="M1398 503 c7 -3 16 -2 19 1 4 3 -2 6 -13 5 -11 0 -14 -3 -6 -6z"/>
<path d="M1718 503 c7 -3 16 -2 19 1 4 3 -2 6 -13 5 -11 0 -14 -3 -6 -6z"/>
<path d="M1906 498 c3 -5 10 -6 15 -3 13 9 11 12 -6 12 -8 0 -12 -4 -9 -9z"/>
<path d="M2034 491 c13 -12 18 -13 28 -2 11 10 9 11 -6 5 -12 -5 -17 -4 -13 3
3 5 -1 10 -9 10 -13 0 -13 -2 0 -16z"/>
<path d="M2117 497 c4 -7 -1 -8 -12 -3 -15 5 -16 4 -5 -9 7 -9 13 -14 14 -13
1 2 7 10 14 19 9 13 9 16 -3 16 -8 0 -11 -5 -8 -10z"/>
<path d="M293 485 c0 -8 5 -11 10 -8 6 4 8 0 4 -9 -4 -12 -1 -14 14 -11 11 3
18 6 17 7 -2 1 -12 9 -24 19 -17 14 -21 14 -21 2z"/>
<path d="M651 484 c0 -11 3 -14 6 -6 3 7 2 16 -1 19 -3 4 -6 -2 -5 -13z"/>
<path d="M675 489 c-4 -6 -5 -12 -2 -15 2 -3 7 2 10 11 7 17 1 20 -8 4z"/>
<path d="M774 480 c0 -13 5 -16 16 -11 8 5 22 6 30 3 8 -2 12 -2 8 2 -3 4 -12
8 -20 10 -7 1 -18 4 -23 8 -6 4 -11 -2 -11 -12z"/>
<path d="M948 493 c7 -3 16 -2 19 1 4 3 -2 6 -13 5 -11 0 -14 -3 -6 -6z"/>
<path d="M410 480 c0 -5 5 -10 10 -10 6 0 10 5 10 10 0 6 -4 10 -10 10 -5 0
-10 -4 -10 -10z"/>
<path d="M544 475 c-18 -15 -18 -15 0 -8 12 4 17 3 13 -4 -3 -5 0 -10 8 -10
10 0 12 4 5 12 -5 7 -7 15 -3 18 12 13 -3 7 -23 -8z"/>
<path d="M1196 473 c-6 -14 -5 -15 5 -6 7 7 10 15 7 18 -3 3 -9 -2 -12 -12z"/>
<path d="M1337 476 c-4 -11 -1 -13 10 -9 10 4 14 2 10 -4 -3 -5 0 -10 8 -10
13 0 12 4 -2 19 -19 22 -19 22 -26 4z"/>
<path d="M1573 475 c0 -7 7 -11 15 -7 11 4 13 1 7 -8 -5 -9 -4 -11 3 -6 16 10
15 14 -6 25 -14 7 -19 6 -19 -4z"/>
<path d="M1657 476 c-4 -11 -1 -13 10 -9 10 4 14 2 10 -4 -3 -5 0 -10 8 -10
13 0 12 4 -2 19 -19 22 -19 22 -26 4z"/>
<path d="M1893 474 c0 -6 9 -9 19 -6 27 7 29 17 4 17 -13 0 -23 -5 -23 -11z"/>
<path d="M1999 473 c-13 -16 -12 -17 4 -4 16 13 21 21 13 21 -2 0 -10 -8 -17
-17z"/>
<path d="M2227 479 c7 -7 15 -10 18 -7 3 3 -2 9 -12 12 -14 6 -15 5 -6 -5z"/>
<path d="M2350 479 c0 -5 5 -7 10 -4 6 3 10 8 10 11 0 2 -4 4 -10 4 -5 0 -10
-5 -10 -11z"/>
<path d="M233 448 c-2 -18 0 -20 7 -8 12 18 13 30 2 30 -4 0 -9 -10 -9 -22z"/>
<path d="M468 452 c3 -9 1 -13 -5 -9 -5 3 -10 0 -10 -8 0 -12 3 -12 16 -2 12
10 14 9 9 -4 -4 -9 -1 -16 7 -16 8 0 11 7 7 15 -3 9 -1 13 5 9 5 -3 10 0 10 8
0 12 -3 12 -16 2 -12 -10 -14 -9 -9 4 4 9 1 16 -7 16 -8 0 -11 -7 -7 -15z"/>
<path d="M868 452 c3 -9 1 -13 -5 -9 -5 3 -10 0 -10 -7 0 -11 5 -11 17 -4 19
12 22 35 4 35 -7 0 -10 -7 -6 -15z"/>
<path d="M906 463 c6 -4 10 -21 9 -36 -1 -15 1 -30 5 -32 3 -2 6 12 5 32 0 23
-6 38 -15 41 -10 2 -11 1 -4 -5z"/>
<path d="M653 450 c2 -10 15 -15 36 -14 20 0 30 -4 27 -11 -2 -6 2 -12 9 -12
8 0 11 7 7 15 -3 9 -1 13 5 9 5 -3 10 0 10 8 0 8 -5 11 -11 7 -17 -11 -70 -9
-79 3 -5 6 -7 4 -4 -5z"/>
<path d="M1011 451 c-8 -5 -20 -7 -28 -4 -7 3 -13 1 -13 -5 0 -6 8 -9 18 -7 9
1 22 -1 27 -6 7 -5 11 0 11 12 0 10 0 19 -1 19 0 0 -6 -4 -14 -9z"/>
<path d="M1054 440 c0 -13 5 -16 16 -11 8 5 21 6 28 4 6 -3 12 0 12 5 0 6 -8
9 -17 7 -10 -1 -23 1 -28 6 -7 5 -11 1 -11 -11z"/>
<path d="M1148 453 c7 -3 16 -2 19 1 4 3 -2 6 -13 5 -11 0 -14 -3 -6 -6z"/>
<path d="M1214 440 c0 -13 5 -16 16 -11 8 5 21 6 28 4 6 -3 12 0 12 5 0 6 -8
9 -17 7 -10 -1 -23 1 -28 6 -7 5 -11 1 -11 -11z"/>
<path d="M1290 445 c-10 -13 -11 -18 -1 -28 10 -9 11 -8 5 7 -5 12 -4 17 3 13
5 -3 10 0 10 8 0 19 -2 19 -17 0z"/>
<path d="M1453 450 c2 -10 15 -15 36 -14 20 0 30 -4 27 -11 -2 -6 2 -12 9 -12
8 0 11 7 7 15 -3 9 -1 13 5 9 5 -3 10 0 10 8 0 8 -5 11 -11 7 -17 -11 -70 -9
-79 3 -5 6 -7 4 -4 -5z"/>
<path d="M1610 445 c-10 -13 -11 -18 -1 -28 10 -9 11 -8 5 7 -5 12 -4 17 3 13
5 -3 10 0 10 8 0 19 -2 19 -17 0z"/>
<path d="M1773 450 c2 -10 15 -15 36 -14 20 0 30 -4 27 -11 -2 -6 2 -12 9 -12
8 0 11 7 7 15 -3 9 -1 13 5 9 5 -3 10 0 10 8 0 8 -5 11 -11 7 -17 -11 -70 -9
-79 3 -5 6 -7 4 -4 -5z"/>
<path d="M1918 453 c7 -3 16 -2 19 1 4 3 -2 6 -13 5 -11 0 -14 -3 -6 -6z"/>
<path d="M2014 440 c0 -13 5 -16 16 -11 8 5 21 6 28 4 6 -3 12 0 12 5 0 6 -8
9 -17 7 -10 -1 -23 1 -28 6 -7 5 -11 1 -11 -11z"/>
<path d="M2108 453 c7 -3 16 -2 19 1 4 3 -2 6 -13 5 -11 0 -14 -3 -6 -6z"/>
<path d="M316 442 c-3 -5 1 -9 9 -9 8 0 12 4 9 9 -3 4 -7 8 -9 8 -2 0 -6 -4
-9 -8z"/>
<path d="M353 435 c0 -8 4 -12 9 -9 5 3 6 10 3 15 -9 13 -12 11 -12 -6z"/>
<path d="M586 442 c-3 -5 1 -9 9 -9 8 0 12 4 9 9 -3 4 -7 8 -9 8 -2 0 -6 -4
-9 -8z"/>
<path d="M1386 442 c-3 -5 1 -9 9 -9 8 0 12 4 9 9 -3 4 -7 8 -9 8 -2 0 -6 -4
-9 -8z"/>
<path d="M1706 442 c-3 -5 1 -9 9 -9 8 0 12 4 9 9 -3 4 -7 8 -9 8 -2 0 -6 -4
-9 -8z"/>
<path d="M2150 440 c0 -5 5 -10 10 -10 6 0 10 5 10 10 0 6 -4 10 -10 10 -5 0
-10 -4 -10 -10z"/>
<path d="M2275 441 c-3 -5 -2 -12 3 -15 5 -3 9 1 9 9 0 17 -3 19 -12 6z"/>
<path d="M2306 442 c-3 -5 1 -9 9 -9 8 0 12 4 9 9 -3 4 -7 8 -9 8 -2 0 -6 -4
-9 -8z"/>
<path d="M277 417 c4 -6 0 -8 -10 -4 -25 9 -21 0 6 -14 12 -6 19 -8 15 -4 -4
5 -3 13 2 20 7 8 5 12 -5 12 -8 0 -11 -5 -8 -10z"/>
<path d="M1148 423 c7 -3 16 -2 19 1 4 3 -2 6 -13 5 -11 0 -14 -3 -6 -6z"/>
<path d="M1947 413 c3 -7 6 -13 8 -13 2 0 5 6 8 13 3 8 -1 14 -8 14 -7 0 -11
-6 -8 -14z"/>
<path d="M2108 423 c7 -3 16 -2 19 1 4 3 -2 6 -13 5 -11 0 -14 -3 -6 -6z"/>
<path d="M2197 413 c3 -7 6 -13 8 -13 2 0 5 6 8 13 3 8 -1 14 -8 14 -7 0 -11
-6 -8 -14z"/>
<path d="M377 399 c4 -13 8 -18 11 -10 2 7 -1 18 -6 23 -8 8 -9 4 -5 -13z"/>
<path d="M411 411 c-8 -5 -9 -11 -3 -15 5 -3 12 1 16 9 6 17 6 18 -13 6z"/>
<path d="M594 400 c0 -13 4 -16 10 -10 7 7 7 13 0 20 -6 6 -10 3 -10 -10z"/>
<path d="M622 400 c0 -14 2 -19 5 -12 2 6 2 18 0 25 -3 6 -5 1 -5 -13z"/>
<path d="M811 411 c-8 -5 -20 -7 -28 -4 -7 3 -13 -1 -13 -8 0 -7 3 -9 7 -6 3
4 16 -1 27 -10 20 -17 20 -17 6 1 -13 18 -13 19 1 14 10 -4 16 -1 16 8 0 8 -1
14 -1 14 -1 0 -7 -4 -15 -9z"/>
<path d="M1394 400 c0 -13 4 -16 10 -10 7 7 7 13 0 20 -6 6 -10 3 -10 -10z"/>
<path d="M1422 400 c0 -14 2 -19 5 -12 2 6 2 18 0 25 -3 6 -5 1 -5 -13z"/>
<path d="M1714 400 c0 -13 4 -16 10 -10 7 7 7 13 0 20 -6 6 -10 3 -10 -10z"/>
<path d="M1742 400 c0 -14 2 -19 5 -12 2 6 2 18 0 25 -3 6 -5 1 -5 -13z"/>
<path d="M1975 409 c-4 -6 -5 -12 -2 -15 2 -3 7 2 10 11 7 17 1 20 -8 4z"/>
<path d="M2176 407 c3 -10 9 -15 12 -12 3 3 0 11 -7 18 -10 9 -11 8 -5 -6z"/>
<path d="M2250 405 c-7 -9 -11 -17 -9 -20 3 -2 10 5 17 15 14 24 10 26 -8 5z"/>
<path d="M353 395 c0 -8 4 -12 9 -9 5 3 6 10 3 15 -9 13 -12 11 -12 -6z"/>
<path d="M530 402 c0 -5 7 -9 15 -9 8 0 12 4 9 9 -3 4 -9 8 -15 8 -5 0 -9 -4
-9 -8z"/>
<path d="M947 399 c7 -7 15 -10 18 -7 3 3 -2 9 -12 12 -14 6 -15 5 -6 -5z"/>
<path d="M1330 402 c0 -5 7 -9 15 -9 8 0 12 4 9 9 -3 4 -9 8 -15 8 -5 0 -9 -4
-9 -8z"/>
<path d="M1570 399 c0 -5 4 -8 9 -4 5 3 12 1 16 -5 3 -5 11 -10 18 -10 6 0 2
7 -9 15 -23 17 -34 19 -34 4z"/>
<path d="M1650 402 c0 -5 7 -9 15 -9 8 0 12 4 9 9 -3 4 -9 8 -15 8 -5 0 -9 -4
-9 -8z"/>
<path d="M1890 402 c0 -5 7 -9 15 -9 8 0 12 4 9 9 -3 4 -9 8 -15 8 -5 0 -9 -4
-9 -8z"/>
<path d="M715 391 c3 -5 1 -11 -5 -13 -6 -2 0 -9 12 -17 21 -13 22 -13 10 1
-10 13 -10 17 0 20 8 3 6 7 -6 11 -9 4 -15 3 -11 -2z"/>
<path d="M875 380 c6 -30 16 -40 12 -12 -2 12 -6 24 -10 28 -3 4 -4 -4 -2 -16z"/>
<path d="M1515 391 c3 -5 1 -11 -5 -13 -6 -2 0 -9 12 -17 21 -13 22 -13 10 1
-10 13 -10 17 0 20 8 3 6 7 -6 11 -9 4 -15 3 -11 -2z"/>
<path d="M1835 391 c3 -5 1 -11 -5 -13 -6 -2 0 -9 12 -17 21 -13 22 -13 10 1
-10 13 -10 17 0 20 8 3 6 7 -6 11 -9 4 -15 3 -11 -2z"/>
<path d="M1278 383 c7 -3 16 -2 19 1 4 3 -2 6 -13 5 -11 0 -14 -3 -6 -6z"/>
<path d="M413 370 c2 -10 17 -15 44 -15 23 0 39 3 37 6 -2 4 -19 6 -37 5 -17
-2 -36 2 -40 8 -6 7 -7 6 -4 -4z"/>
<path d="M940 376 c0 -2 7 -7 16 -10 8 -3 12 -2 9 4 -6 10 -25 14 -25 6z"/>
<path d="M1017 369 c7 -7 15 -10 18 -7 3 3 -2 9 -12 12 -14 6 -15 5 -6 -5z"/>
<path d="M1097 369 c7 -7 15 -10 18 -7 3 3 -2 9 -12 12 -14 6 -15 5 -6 -5z"/>
<path d="M1177 369 c7 -7 15 -10 18 -7 3 3 -2 9 -12 12 -14 6 -15 5 -6 -5z"/>
<path d="M1255 370 c3 -4 14 -10 25 -13 11 -3 18 -2 15 3 -3 4 -14 10 -25 13
-11 3 -18 2 -15 -3z"/>
<path d="M1977 369 c7 -7 15 -10 18 -7 3 3 -2 9 -12 12 -14 6 -15 5 -6 -5z"/>
<path d="M2057 369 c7 -7 15 -10 18 -7 3 3 -2 9 -12 12 -14 6 -15 5 -6 -5z"/>
<path d="M513 355 c0 -8 4 -12 9 -9 5 3 6 10 3 15 -9 13 -12 11 -12 -6z"/>
<path d="M636 353 c-6 -14 -5 -15 5 -6 7 7 10 15 7 18 -3 3 -9 -2 -12 -12z"/>
<path d="M753 355 c0 -8 4 -12 9 -9 5 3 6 10 3 15 -9 13 -12 11 -12 -6z"/>
<path d="M826 362 c-3 -5 1 -9 9 -9 8 0 12 4 9 9 -3 4 -7 8 -9 8 -2 0 -6 -4
-9 -8z"/>
<path d="M1150 355 c0 -8 4 -15 10 -15 5 0 7 7 4 15 -4 8 -8 15 -10 15 -2 0
-4 -7 -4 -15z"/>
<path d="M1313 355 c0 -8 4 -12 9 -9 5 3 6 10 3 15 -9 13 -12 11 -12 -6z"/>
<path d="M1436 353 c-6 -14 -5 -15 5 -6 7 7 10 15 7 18 -3 3 -9 -2 -12 -12z"/>
<path d="M1553 355 c0 -8 4 -12 9 -9 5 3 6 10 3 15 -9 13 -12 11 -12 -6z"/>
<path d="M1633 355 c0 -8 4 -12 9 -9 5 3 6 10 3 15 -9 13 -12 11 -12 -6z"/>
<path d="M1756 353 c-6 -14 -5 -15 5 -6 7 7 10 15 7 18 -3 3 -9 -2 -12 -12z"/>
<path d="M1873 355 c0 -8 4 -12 9 -9 5 3 6 10 3 15 -9 13 -12 11 -12 -6z"/>
<path d="M1950 355 c0 -8 4 -15 10 -15 5 0 7 7 4 15 -4 8 -8 15 -10 15 -2 0
-4 -7 -4 -15z"/>
<path d="M2110 355 c0 -8 4 -15 8 -15 5 0 9 7 9 15 0 8 -4 15 -9 15 -4 0 -8
-7 -8 -15z"/>
<path d="M995 350 c-3 -5 -1 -10 4 -10 6 0 11 5 11 10 0 6 -2 10 -4 10 -3 0
-8 -4 -11 -10z"/>
<path d="M1075 350 c-3 -5 -1 -10 4 -10 6 0 11 5 11 10 0 6 -2 10 -4 10 -3 0
-8 -4 -11 -10z"/>
<path d="M1235 350 c-3 -5 -1 -10 4 -10 6 0 11 5 11 10 0 6 -2 10 -4 10 -3 0
-8 -4 -11 -10z"/>
<path d="M2035 350 c-3 -5 -1 -10 4 -10 6 0 11 5 11 10 0 6 -2 10 -4 10 -3 0
-8 -4 -11 -10z"/>
<path d="M630 1080 c0 -5 5 -10 10 -10 6 0 10 5 10 10 0 6 -4 10 -10 10 -5 0
-10 -4 -10 -10z"/>
<path d="M57 1440 c-16 -23 -12 -53 8 -70 8 -7 53 -10 115 -8 90 3 104 6 116
23 11 16 11 25 1 45 -12 24 -17 25 -119 28 -98 2 -108 1 -121 -18z"/>
</g>
</svg>
